<?xml version="1.0" encoding="utf-8"?>
<svg enable-background="new 0 0 550 139" viewBox="0 0 550 139" xmlns="http://www.w3.org/2000/svg">
  <path d="m430.02 26.31c1.54 1.12 3.05 2.3 4.46 3.59-1.41 3.76-2.67 7.63-4.45 11.24-2.1 3.74-4.84 7.17-7.28 10.7-1.99 2.81-2.98 6.18-4.67 9.27-1.91 3.54-4.07 6.77-5.18 10.7-3.56 11.94-8.47 23.64-11.44 35.74-1.64 6.65-1.04 13.16.15 19.82.76 2.23-2.33 4.17-3.53 5.77-2.02-.7-4.05-1.38-6.05-2.13-2.48-2.19-4.38-4.64-4.84-8-1.58-5.07-2.74-10.08-3.65-15.31-1.18-14.42-4.19-28.45-4.14-43.02-.68-.69-1.39-1.34-2.13-1.96-.92 1.63-1.73 3.31-2.54 5-.54-.24-1.08-.47-1.62-.71-.57-.58-1.14-1.17-1.71-1.76 1.54-3.69 3.11-7.35 4.89-10.94 1.15-2.77 2.54-5.21 2-8.31-.15-3.4-1.45-6.18-2.84-9.2.55-1.93 1.87-3.72 3.05-5.33 1.77-.94 3.65-1.84 5.59-2.41 4 .51 6.99 2.83 9.79 5.55-1.45 2.74-1.1 5.41-1.12 8.39.01 4.46-1.62 8.51-1.74 12.96-.2 7.7-.16 15.41.43 23.1.27 7.39.94 14.71 2.57 21.93.31 1.68 1.28 2.87 2.31 4.16l.9 1.15c2.95-3.54 4-8.2 5.38-12.59 1.26-4.96 2.78-9.71 4.61-14.48 3.45-9 5.62-19.18 10.56-27.46 1.69-2.69.26-4.93-.38-7.68 1.42-1.87 2.89-3.55 4.07-5.59 2.76-4.53 3.78-9.16 8.55-12.19z" fill="#ce0000"/>
  <path d="m519.64 27.41c-2.08 3.62-6.03 6.31-9.08 9.18-4.65 3.91-7.89 8.58-11.58 13.38-4.3 6.13-8.45 12.49-12.1 19.02-2.87 5.04-5.67 10.02-7.46 15.56-3.03 8.85-8.14 17.29-10.44 26.3-1.71 7.47-2.64 14.71-6.12 21.66-1.35-.03-2.7-.07-4.05-.09-1.31-1.2-2.57-2.46-3.85-3.68.11-5.17 1.29-10.15 1.72-15.29.46-4.3 2.21-8.04 2.1-12.44-.17-8.15.95-16.13 1.87-24.2.11-1.35.17-2.71.18-4.07-4.08 3.42-6.16 7.72-9.01 12.08-4.25 6.58-7.88 13.39-11.83 20.16-4.73 8-8.54 16.8-12.25 25.35-1.95-.32-3.89-.64-5.81-1.09-3.82-2.75-1.83-6.29-2.01-10.24.24-3.78-.74-6.98.73-10.33 2.22-5 2.08-11.25 2.5-16.68.44-9.58 3-18.56 6.38-27.47 2.33-7.44 5.01-14.73 8.19-21.85 1.42-4.08 3.72-7.62 5.9-11.31 4.75-.5 8.64-.59 11.95 3.39-2.62 8.07-5.56 16.2-8.92 23.99-4.33 7.79-7.33 16.09-10.78 24.29-1.6 3.36-3.95 6.18-5.12 9.79-1.87 5.87-3.11 11.68-.73 17.64l.93-1.33c3.57-4.92 6.19-10.56 9.48-15.69 7.21-11.96 14.91-24.2 21.3-36.68 1.47-3.1 1.9-6.64 3.03-9.89 2.71-.59 5.38-1.29 8.05-2.03.94.91 1.87 1.8 2.78 2.73-2.45 10.1-5.59 19.99-7.97 30.12-2.96 8.66-3.6 16.46-2.44 25.54.69-1.21 1.36-2.43 2-3.66 5.05-10.49 10.21-21.11 16.45-30.94 8.33-11.22 13.78-22.48 24-31.99 3.64-3.22 7.37-7.55 12.01-9.23z" fill="#ce0000"/>
  <g fill="#39177a">
    <path d="m434.48 29.9c.82.95 1.55 1.93 1.97 3.12-1.06 3.27-2.57 6.39-3.72 9.63-3.3 5.86-8.39 11.03-10.76 17.37-1.95 4.81-5.21 8.39-6.65 13.34-3.73 12.93-9.44 25.58-12.14 38.77-1.2 6.47-.15 12.43.76 18.81-.83 1.8-2.69 3.23-3.99 4.73-2.83-1.4-5.55-2.51-7.92-4.66 2 .75 4.03 1.43 6.05 2.13 1.2-1.6 4.29-3.54 3.53-5.77-1.19-6.66-1.79-13.17-.15-19.82 2.97-12.1 7.88-23.8 11.44-35.74 1.11-3.93 3.27-7.16 5.18-10.7 1.69-3.09 2.68-6.46 4.67-9.27 2.44-3.53 5.18-6.96 7.28-10.7 1.78-3.61 3.04-7.48 4.45-11.24z"/>
    <path d="m522.36 29.58c-3.54 4.58-8.64 7.95-12.66 12.12-8.06 8.81-14.05 18.61-20.29 28.71-2.73 5.28-6.13 10.58-7.75 16.29-2.92 8.61-7.86 16.86-10.32 25.64-1.65 7.51-2.92 16.01-6.55 22.83-2.14-.67-4.2-1.32-5.98-2.75 1.35.02 2.7.06 4.05.09 3.48-6.95 4.41-14.19 6.12-21.66 2.3-9.01 7.41-17.45 10.44-26.3 1.79-5.54 4.59-10.52 7.46-15.56 4.52-5.38 7.78-11.5 11.96-17.13 4.75-7.28 11.26-13.56 17.84-19.18 1.78-1.57 3.34-2.5 5.68-3.1z"/>
    <path d="m393.88 34.61c.55.53 1.09 1.08 1.62 1.64-.12 2.24-.31 4.48-.25 6.73.22 5.86-2.4 11.09-2.04 16.98-.43 10.08.34 20.04.95 30.08.49 5.07 1.61 10.04 2.17 15.11-1.03-1.29-2-2.48-2.31-4.16-1.63-7.22-2.3-14.54-2.57-21.93-.59-7.69-.63-15.4-.43-23.1.12-4.45 1.75-8.5 1.74-12.96.02-2.98-.33-5.65 1.12-8.39z"/>
    <path d="m455.57 34.75c.75 1.26 1.51 2.73 1.61 4.22-.55 2.57-1.77 5.04-2.68 7.51-2.47 6.27-4.47 13.29-8.02 19-2.29 3.7-3.03 7.98-5.17 11.77-2.02 3.86-2.56 8.54-5.28 11.8-4.19 5.88-5.07 13.05-5.08 20.08l-.93 1.33c-2.38-5.96-1.14-11.77.73-17.64 1.17-3.61 3.52-6.43 5.12-9.79 3.45-8.2 6.45-16.5 10.78-24.29 3.36-7.79 6.3-15.92 8.92-23.99z"/>
    <path d="m475.59 47.57c3.38 3.22.95 6.4.2 10.18-2.36 7.56-4.15 15.23-6.16 22.89-2.09 6.13-3.27 12.44-2.45 18.93-.64 1.23-1.31 2.45-2 3.66-1.16-9.08-.52-16.88 2.44-25.54 2.38-10.13 5.52-20.02 7.97-30.12z"/>
    <path d="m377.27 62.72c.74.62 1.45 1.27 2.13 1.96-2.49 4.56-4.64 9.28-6.64 14.07-3.9 9.4-8.09 18.67-11.93 28.09-3.62 8.08-5.64 16.79-9.04 24.98-.77 1.63-1.67 3.82-3.36 4.68-2.62 1.16-5.32.36-7.68-1.01 2.01-.5 4.22-.81 6.11-1.72 1.6-1.36 2.51-3.68 3.32-5.58 2.2-5.92 4.1-11.95 6.16-17.91 3.41-8.77 7.25-17.37 10.93-26.03 2.19-5.12 4.2-10.2 6.77-15.17l.69-1.36c.81-1.69 1.62-3.37 2.54-5z"/>
  </g>
  <path d="m371.236 65.3851c1.834-3.745 2.406 1.5095 3.886 1.4695-2.57 4.97-5.662 12.2754-7.852 17.3954-3.68 8.66-7.52 17.26-10.93 26.03-2.06 5.96-3.96 11.99-6.16 17.91-.81 1.9-1.72 4.22-3.32 5.58-1.89.91-4.1 1.22-6.11 1.72-1.49-1.68-3.31-3.22-3.59-5.58-.53-3.71-.33-7.43-1.3-11.1-.71-4.59-.96-10 2.42-13.64 2.14-.89 4.51-1.32 6.75-1.87.73.72 1.45 1.43 2.16 2.16-1.63 5.21-2.2 10.36-1.93 15.81.99-1.27 1.94-2.57 2.81-3.93 3.18-4.27 4.5-8.92 6.56-13.78 2.74-6.55 5.11-13.21 8.38-19.53 2.06-5.05 5.876-13.7149 8.226-18.6449z" fill="#ce0000"/>
  <path d="m460.83 72.74c-.01 1.36-.07 2.72-.18 4.07-5.58 8.5-11.02 17.01-15.9 25.94-5.75 9.58-10.64 19.62-14.76 30-3.26-.37-5.64-1.25-8.06-3.51 1.92.45 3.86.77 5.81 1.09 3.71-8.55 7.52-17.35 12.25-25.35 3.95-6.77 7.58-13.58 11.83-20.16 2.85-4.36 4.93-8.66 9.01-12.08z" fill="#39177a"/>
  <path d="m347.19 105.46c.6.6 1.18 1.21 1.75 1.83-.5 3.35-.98 6.64-.87 10.05-.87 1.36-1.82 2.66-2.81 3.93-.27-5.45.3-10.6 1.93-15.81z" fill="#39177a"/>
  <path d="M 154.701 33.363 C 155.421 39.063 155.161 44.673 155.181 50.393 C 155.161 58.003 155.221 65.613 155.131 73.223 C 159.251 71.133 162.761 68.823 167.641 69.353 C 171.141 69.633 173.711 71.663 175.901 74.233 C 177.521 79.533 177.871 84.943 175.311 90.013 C 173.141 94.333 168.561 97.203 163.711 97.063 C 160.861 96.933 158.351 95.703 155.711 95.223 C 150.061 95.963 144.421 96.603 138.711 96.273 C 134.641 95.993 130.611 96.073 126.551 96.253 C 125.381 96.203 124.211 96.103 123.051 95.963 C 124.501 94.933 126.001 93.973 127.501 93.003 C 127.701 86.973 128.031 80.783 127.261 74.783 C 125.451 73.233 124.181 73.123 121.881 73.313 C 120.021 73.363 117.401 73.853 116.171 75.343 C 115.531 76.313 115.111 77.193 115.091 78.393 C 114.861 83.193 115.081 88.033 115.191 92.843 C 115.951 93.363 116.711 93.883 117.471 94.423 C 118.271 95.013 119.061 95.653 119.831 96.333 C 115.061 96.133 110.351 95.993 105.581 96.283 C 104.561 96.283 103.541 96.273 102.521 96.253 C 104.051 95.083 105.641 94.023 107.231 92.953 C 107.581 86.883 107.611 80.813 107.091 74.763 C 105.381 73.763 103.951 73.073 101.901 73.233 C 100.031 73.123 97.791 73.623 96.431 74.993 C 95.901 75.523 95.411 76.063 94.941 76.643 C 94.321 81.983 94.751 87.513 94.921 92.883 C 95.601 93.353 96.261 93.823 96.931 94.293 C 97.731 94.893 98.511 95.513 99.271 96.173 C 93.061 96.033 86.911 96.183 80.701 96.293 C 74.191 95.773 68.111 95.833 61.601 96.363 C 60.521 96.253 59.441 96.113 58.371 95.953 C 60.591 94.133 63.141 93.883 65.861 93.303 C 64.851 89.223 63.591 85.203 62.001 81.313 L 61.271 79.623 C 55.321 79.253 49.131 79.203 43.191 79.643 C 41.681 84.063 40.491 88.583 39.581 93.153 C 40.441 93.363 41.291 93.563 42.151 93.773 C 44.081 94.233 45.671 94.683 47.041 96.223 C 40.841 96.193 34.751 95.673 28.561 96.293 C 27.421 96.273 26.281 96.223 25.141 96.143 C 28.031 92.873 32.571 95.013 34.291 90.983 C 39.631 81.463 43.981 71.153 48.561 61.243 C 51.651 54.843 53.871 48.153 56.301 41.493 C 56.851 42.253 57.381 43.023 57.911 43.793 C 58.611 49.623 60.721 54.863 62.801 60.293 C 66.271 69.133 69.701 77.993 73.301 86.773 C 74.421 89.383 75.291 91.833 77.391 93.853 C 80.461 94.323 83.481 94.333 86.571 94.063 C 87.321 88.183 87.201 82.163 86.911 76.253 C 86.841 75.393 86.771 74.533 86.691 73.673 C 85.281 73.653 83.861 73.603 82.441 73.533 C 81.521 73.193 80.601 72.843 79.681 72.463 C 84.461 71.213 89.311 70.383 93.991 68.773 C 94.271 69.563 94.531 70.353 94.771 71.153 C 94.191 73.173 95.621 73.853 97.171 72.643 C 100.661 70.963 104.751 69.253 108.681 69.313 C 111.601 69.243 113.581 71.683 115.651 73.383 C 119.881 71.613 124.981 68.943 129.641 69.333 C 131.941 69.423 133.271 70.853 134.891 72.253 C 135.501 79.453 134.691 86.793 135.901 93.873 L 137.691 94.273 C 140.631 94.963 144.151 94.993 146.751 93.313 C 147.801 87.493 147.171 81.293 147.331 75.393 C 147.151 63.923 147.771 52.373 146.901 40.933 C 146.931 39.903 146.491 39.253 145.561 38.963 C 143.851 38.683 142.131 38.483 140.431 38.193 C 145.001 36.163 149.911 34.833 154.701 33.363 Z M 157.341 78.913 C 156.741 83.483 157.241 88.173 156.801 92.783 C 158.611 94.083 160.311 95.243 162.671 94.923 C 165.431 94.483 167.241 92.413 168.241 89.933 C 169.991 84.993 169.851 79.433 166.951 74.943 C 163.231 75.553 159.671 75.453 157.341 78.913 Z M 47.431 77.363 C 51.761 77.403 56.101 77.403 60.441 77.363 C 58.421 71.803 56.381 66.253 54.221 60.743 C 51.711 66.183 49.471 71.743 47.431 77.363 Z M 46.359 72.166 C 48.779 67.656 51.109 63.026 52.909 58.226 L 52.549 57.246 C 49.999 61.936 48.069 67.116 46.359 72.166 Z" fill="#39177a"/>
  <path d="M 145.318 39.206 C 146.248 39.496 146.688 40.146 146.658 41.176 L 144.738 41.626 C 142.338 41.096 143.468 39.336 145.318 39.206 Z" fill="#fecc05"/>
  <path d="M 286.698 39.846 C 286.748 41.856 286.668 43.846 286.468 45.846 C 285.628 51.686 285.498 57.556 285.608 63.456 L 284.428 64.696 C 283.838 61.896 283.708 58.936 282.828 56.216 C 281.578 53.156 279.218 50.476 276.648 48.436 C 270.778 43.296 261.158 44.696 256.088 50.266 C 251.568 55.116 249.888 62.156 249.618 68.616 C 249.368 75.366 250.678 82.626 255.278 87.846 C 259.908 93.886 267.788 95.546 274.808 92.956 C 279.748 91.326 282.458 87.646 286.718 85.046 C 285.548 89.136 282.528 91.096 279.538 93.776 C 270.338 98.946 259.468 98.896 250.218 93.876 C 246.258 90.616 243.038 86.636 241.398 81.736 C 239.168 75.036 239.328 67.466 241.638 60.806 C 245.088 51.216 254.338 44.436 264.428 43.536 C 271.348 42.746 277.568 44.566 284.038 46.696 C 284.748 44.216 284.968 41.896 286.698 39.846 Z" fill="#39177a"/>
  <path d="M 289.058 42.156 C 288.988 45.556 288.548 48.906 288.238 52.276 C 287.778 57.176 288.008 62.066 287.418 66.966 C 286.788 65.806 286.168 64.646 285.608 63.456 C 285.498 57.556 285.628 51.686 286.468 45.846 C 287.288 44.586 288.158 43.366 289.058 42.156 Z" fill="#fecc05"/>
  <path d="M 57.911 43.793 C 60.661 47.073 60.981 51.443 62.511 55.583 C 67.021 68.503 72.581 81.053 77.391 93.853 C 75.291 91.833 74.421 89.383 73.301 86.773 C 69.701 77.993 66.271 69.133 62.801 60.293 C 60.721 54.863 58.611 49.623 57.911 43.793 Z" fill="#fecc05"/>
  <path d="M 276.648 48.436 C 271.888 47.386 267.408 46.716 262.878 49.056 C 256.018 52.516 252.918 60.336 252.138 67.586 C 251.198 74.606 252.478 81.396 255.278 87.846 C 250.678 82.626 249.368 75.366 249.618 68.616 C 249.888 62.156 251.568 55.116 256.088 50.266 C 261.158 44.696 270.778 43.296 276.648 48.436 Z" fill="#fecc05"/>
  <path d="M 53.151 57.983 C 53.501 58.903 53.861 59.823 54.221 60.743 C 51.711 66.183 49.471 71.743 47.431 77.363 C 46.391 77.353 45.351 77.343 44.321 77.323 C 44.901 75.903 45.491 74.483 46.101 73.073 L 46.351 72.483 L 46.601 71.923 C 49.021 67.413 51.351 62.783 53.151 57.983 Z" fill="#fecc05"/>
  <path d="M 208.041 75.053 C 208.281 77.283 208.571 79.493 208.791 81.723 C 201.911 82.203 195.041 81.873 188.151 82.083 C 188.851 84.833 189.581 87.413 191.471 89.593 C 193.671 91.133 195.851 92.403 198.631 92.323 C 201.991 92.343 205.301 89.523 208.241 88.063 C 207.681 89.493 207.081 90.913 206.481 92.333 C 203.691 94.033 201.321 95.983 198.041 96.663 C 194.081 97.543 190.421 96.683 186.661 95.443 C 181.031 91.103 179.191 84.243 181.961 77.653 C 186.281 67.803 201.791 66.293 208.041 75.053 Z M 194.571 74.313 C 192.761 75.673 191.781 78.243 190.531 80.103 C 194.321 80.123 198.101 80.183 201.891 80.103 C 201.521 77.613 200.981 75.213 199.971 72.893 C 198.191 73.313 196.271 73.583 194.571 74.313 Z M 192.318 72.146 C 193.618 72.906 194.648 72.666 195.418 71.396 C 194.198 70.896 193.168 71.146 192.318 72.146 Z" fill="#39177a"/>
  <path d="M 223.388 69.206 C 223.828 69.836 224.268 70.456 224.708 71.086 C 224.618 73.036 224.508 74.976 224.438 76.916 C 225.248 75.806 226.058 74.676 226.888 73.566 C 228.628 71.366 230.408 69.286 233.438 69.126 C 235.278 68.986 236.688 70.356 238.098 71.336 C 237.848 73.026 237.608 74.706 237.348 76.396 C 235.878 76.906 234.398 77.386 232.908 77.856 L 232.138 77.156 C 231.328 76.416 230.528 75.686 229.678 74.986 L 229.208 74.596 C 228.008 75.096 227.238 75.996 226.888 77.316 C 224.838 82.586 224.488 87.816 225.268 93.386 L 227.118 93.916 C 229.248 94.506 231.228 94.766 232.818 96.476 C 226.638 96.466 220.528 96.036 214.348 96.596 C 213.138 96.436 211.958 96.216 210.778 95.926 C 212.778 95.046 214.788 94.336 216.878 93.726 C 217.368 87.946 217.338 82.076 217.128 76.276 C 216.938 75.426 216.728 74.566 216.498 73.716 C 214.958 73.836 213.408 73.976 211.868 74.146 C 211.248 73.606 210.628 73.046 210.008 72.486 C 214.538 71.576 219.018 70.756 223.388 69.206 Z" fill="#39177a"/>
  <path d="M 314.798 70.236 C 319.018 71.196 322.168 73.946 324.638 77.386 C 325.388 83.056 325.888 88.266 321.428 92.606 C 314.718 98.716 306.448 97.846 298.288 95.736 C 295.838 93.876 293.418 91.686 292.298 88.736 C 290.258 83.206 291.758 76.376 296.688 72.856 C 301.638 69.196 308.998 68.886 314.798 70.236 Z M 304.588 76.766 C 300.918 81.836 302.108 88.206 303.208 93.896 C 305.168 94.806 306.938 95.806 309.178 95.376 C 312.258 94.886 314.438 92.646 315.588 89.856 C 317.638 84.356 317.278 78.026 313.638 73.256 C 310.158 73.876 306.898 73.626 304.588 76.766 Z" fill="#39177a"/>
  <path d="M 340.398 69.216 C 340.868 69.866 341.338 70.516 341.788 71.176 C 340.768 73.106 342.188 74.246 343.898 72.936 C 347.708 71.066 352.138 69.426 356.428 69.546 C 358.768 69.546 360.258 70.876 361.938 72.286 C 363.088 79.236 362.058 86.236 362.898 93.166 C 363.498 93.596 364.138 93.986 364.788 94.336 C 365.478 94.526 366.168 94.706 366.858 94.886 C 367.428 95.476 367.998 96.066 368.568 96.646 C 363.448 96.236 358.418 96.196 353.298 96.486 C 351.938 96.506 350.578 96.486 349.208 96.436 C 350.948 95.296 352.788 94.336 354.648 93.396 C 355.038 87.466 355.278 81.396 354.548 75.486 C 354.068 74.846 353.578 74.216 353.068 73.596 C 351.588 73.496 350.118 73.476 348.638 73.526 C 346.748 73.476 344.498 73.806 343.128 75.236 C 342.018 76.346 341.438 76.966 341.488 78.646 C 341.378 82.896 341.298 87.216 341.588 91.456 C 341.598 92.546 342.198 93.416 343.378 94.046 C 344.528 94.826 345.668 95.606 346.708 96.536 C 341.968 96.476 337.268 96.086 332.518 96.466 C 330.698 96.526 328.878 96.466 327.058 96.356 C 329.128 95.216 331.428 94.476 333.428 93.216 C 334.188 87.726 333.868 82.016 333.648 76.486 C 333.578 75.636 333.498 74.786 333.428 73.936 C 332.018 73.886 330.618 73.816 329.218 73.716 C 328.188 73.526 327.168 73.316 326.148 73.086 C 330.708 71.276 335.698 70.676 340.398 69.216 Z" fill="#39177a"/>
  <path d="M 94.771 71.153 C 95.991 71.023 96.781 71.513 97.171 72.643 C 95.621 73.853 94.191 73.173 94.771 71.153 Z" fill="#fecc05"/>
  <path d="M 195.418 71.396 C 196.888 71.906 198.338 72.456 199.728 73.136 C 197.948 73.556 196.028 73.826 194.328 74.556 C 192.518 75.916 191.538 78.486 190.288 80.346 L 188.198 80.386 C 188.788 76.746 189.548 74.666 192.318 72.146 C 193.618 72.906 194.648 72.666 195.418 71.396 Z" fill="#fecc05"/>
  <path d="M 224.708 71.086 C 225.438 71.916 226.158 72.736 226.888 73.566 C 226.058 74.676 225.248 75.806 224.438 76.916 C 224.508 74.976 224.618 73.036 224.708 71.086 Z" fill="#fecc05"/>
  <path d="M 238.098 71.336 C 239.848 73.446 241.098 77.916 238.028 79.416 C 235.678 80.356 234.618 79.316 232.908 77.856 C 234.398 77.386 235.878 76.906 237.348 76.396 C 237.608 74.706 237.848 73.026 238.098 71.336 Z" fill="#fecc05"/>
  <path d="M 306.618 71.726 C 309.258 70.946 311.438 71.876 313.638 73.256 C 310.158 73.876 306.898 73.626 304.588 76.766 C 300.918 81.836 302.108 88.206 303.208 93.896 C 299.538 89.586 299.168 83.856 300.428 78.536 C 301.348 75.356 303.168 72.466 306.618 71.726 Z" fill="#fecc05"/>
  <path d="M 341.788 71.176 C 342.938 71.416 343.638 72.006 343.898 72.936 C 342.188 74.246 340.768 73.106 341.788 71.176 Z" fill="#fecc05"/>
  <path d="M 46.109 72.726 L 45.859 73.316 Z" fill="#fff"/>
  <path d="M 134.891 72.253 C 136.581 74.213 137.251 75.893 137.391 78.483 C 137.641 83.743 137.361 89.013 137.691 94.273 L 135.901 93.873 C 134.691 86.793 135.501 79.453 134.891 72.253 Z" fill="#fecc05"/>
  <path d="M 161.751 73.013 C 163.811 72.783 165.311 73.893 166.951 74.943 C 163.231 75.553 159.671 75.453 157.341 78.913 C 156.741 83.483 157.241 88.173 156.801 92.783 C 156.121 92.263 155.441 91.733 154.761 91.193 C 154.811 86.283 154.801 81.373 154.791 76.463 C 156.861 75.063 159.181 73.183 161.751 73.013 Z" fill="#fecc05"/>
  <path d="M 361.938 72.286 C 363.278 73.846 364.368 75.486 364.518 77.616 C 364.968 83.156 364.638 88.776 364.788 94.336 C 364.138 93.986 363.498 93.596 362.898 93.166 C 362.058 86.236 363.088 79.236 361.938 72.286 Z" fill="#fecc05"/>
  <path d="M 82.441 73.533 C 83.861 73.603 85.281 73.653 86.691 73.673 C 86.771 74.533 86.841 75.393 86.911 76.253 C 85.441 75.953 83.971 75.663 82.501 75.373 C 82.481 74.763 82.461 74.143 82.441 73.533 Z" fill="#fecc05"/>
  <path d="M 101.901 73.233 C 103.951 73.073 105.381 73.763 107.091 74.763 C 103.641 75.483 100.331 76.383 97.101 77.813 C 96.871 83.303 96.931 88.793 96.931 94.293 C 96.261 93.823 95.601 93.353 94.921 92.883 C 94.751 87.513 94.321 81.983 94.941 76.643 C 95.339 76.152 95.752 75.689 96.191 75.237 C 98.536 76.084 100.045 75.129 101.652 73.484 C 101.734 73.402 101.818 73.318 101.901 73.233 Z M 96.431 74.993 C 96.435 74.995 96.44 74.996 96.444 74.998 C 96.38 75.054 96.317 75.111 96.255 75.17 C 96.313 75.111 96.372 75.052 96.431 74.993 Z" fill="#fecc05"/>
  <path d="M 121.881 73.313 C 124.181 73.123 125.451 73.233 127.261 74.783 C 124.201 75.573 119.701 76.013 117.451 78.463 C 116.881 83.723 117.261 89.143 117.471 94.423 C 116.711 93.883 115.951 93.363 115.191 92.843 C 115.081 88.033 114.861 83.193 115.091 78.393 C 115.109 77.306 115.455 76.482 115.996 75.616 C 118.391 76.667 119.728 75.481 121.3 73.898 C 121.49 73.709 121.683 73.513 121.881 73.313 Z" fill="#fecc05"/>
  <path d="M 211.868 74.146 C 213.408 73.976 214.958 73.836 216.498 73.716 C 216.728 74.566 216.938 75.426 217.128 76.276 C 215.068 75.986 213.368 75.776 211.868 74.146 Z" fill="#fecc05"/>
  <path d="M 329.218 73.716 C 330.618 73.816 332.018 73.886 333.428 73.936 C 333.498 74.786 333.578 75.636 333.648 76.486 C 332.148 76.196 330.658 75.906 329.158 75.626 C 329.178 74.986 329.198 74.356 329.218 73.716 Z" fill="#fecc05"/>
  <path d="M 353.068 73.596 C 353.578 74.216 354.068 74.846 354.548 75.486 C 350.588 75.526 347.358 76.416 343.778 78.026 C 343.488 83.356 343.628 88.706 343.378 94.046 C 342.198 93.416 341.598 92.546 341.588 91.456 C 341.298 87.216 341.378 82.896 341.488 78.646 C 341.438 76.966 342.018 76.346 343.128 75.236 C 345.448 76.146 347.018 75.106 348.638 73.526 C 350.118 73.476 351.588 73.496 353.068 73.596 Z" fill="#fecc05"/>
  <path d="M 175.901 74.233 C 182.811 81.323 179.431 96.693 169.241 98.903 C 164.091 100.453 160.361 96.763 155.341 97.863 C 145.451 99.203 135.691 97.923 125.781 98.573 C 126.041 97.803 126.291 97.023 126.551 96.253 C 130.611 96.073 134.641 95.993 138.711 96.273 C 144.421 96.603 150.061 95.963 155.711 95.223 C 158.351 95.703 160.861 96.933 163.711 97.063 C 168.561 97.203 173.141 94.333 175.311 90.013 C 177.871 84.943 177.521 79.533 175.901 74.233 Z" fill="#fecc05"/>
  <path d="M 232.138 77.156 C 230.878 78.056 229.588 78.666 228.918 80.146 C 226.978 84.236 227.148 89.476 227.118 93.916 L 225.268 93.386 C 224.488 87.816 224.838 82.586 226.888 77.316 C 228.558 77.586 229.188 76.326 229.678 74.986 C 230.528 75.686 231.328 76.416 232.138 77.156 Z" fill="#fecc05"/>
  <g fill="#fecc05" transform="matrix(1, 0, 0, 1, 16.2812, 23.4956)">
    <path d="m191.517 51.8005c2.48 2.63 2.82 5.62 2.94 9.08-6.78.11-13.54-.08-20.32.16.28 1.77.56 3.53.81 5.3-1.89-2.18-2.62-4.76-3.32-7.51 6.89-.21 13.76.12 20.64-.36-.22-2.23-.51-4.44-.75-6.67z"/>
    <path d="m308.357 53.8905c4.2 4.89 3.61 13.02-.97 17.46-2.99 2.94-7.18 4.29-11.28 4.61-5.07.32-10.08-.36-14.1-3.72 8.16 2.11 16.43 2.98 23.14-3.13 4.46-4.34 3.96-9.55 3.21-15.22z"/>
    <path d="m26.9101 56.1478c5.94-.44 12.13-.39 18.08-.02l.73 1.69c-5.44.27-10.84.2-16.29.21-1.47 4.01-2.7 8.06-3.56 12.25-.86-.21-1.71-.41-2.57-.62.91-4.57 2.1-9.09 3.61-13.51z"/>
    <path d="m272.637 63.9305c-1.74 5.38-7.63 9.1-12.66 11-8.6 2.74-19.2 1.86-26.04-4.55 9.25 5.02 20.12 5.07 29.32-.1 3.49-1.67 6.11-4.35 9.38-6.35z"/>
    <path d="m194.397 66.8405c-3.88 9.44-16.81 12.36-24.26 5.35 3.76 1.24 7.42 2.1 11.38 1.22 3.28-.68 5.65-2.63 8.44-4.33 1.44-.83 2.93-1.56 4.44-2.24z"/>
    <path d="m12.2801 72.7978c6.19-.62 12.28-.1 18.48-.07.69.75 1.36 1.51 2.02 2.29-7.11-.25-14.09-.51-21.19.16.22-.79.45-1.58.69-2.38z"/>
    <path d="m45.3201 72.8678c6.51-.53 12.59-.59 19.1-.07 6.21-.11 12.36-.26 18.57-.12.85.74 1.67 1.5 2.5 2.27-8.38-.27-16.72.42-25.07-.23-5.22-.25-10.3.24-15.5.47.13-.78.27-1.55.4-2.32z"/>
    <path d="m89.3001 72.7878c4.77-.29 9.48-.15 14.2499.05.73.67 1.46 1.36 2.17 2.05-5.56.12-11.1199-.04-16.6799.18.09-.76.17-1.52.26-2.28z"/>
    <path d="m198.067 73.1005c6.18-.56 12.29-.13 18.47-.12.68.71 1.35 1.44 2.01 2.17-7.1.02-14.18-.21-21.28.16.27-.74.53-1.48.8-2.21z"/>
    <path d="m316.237 72.9705c4.75-.38 9.45.01 14.19.07.71.69 1.42 1.39 2.11 2.1-6.27-.01-12.54.01-18.81 0 .82-.74 1.66-1.47 2.51-2.17z"/>
    <path d="m337.017 72.9905c5.12-.29 10.15-.25 15.27.16.54.24 1.08.47 1.62.71l-.69 1.36c-1.48.04-2.96.03-4.45.04-4.21-.13-8.38-.12-12.58.05.27-.77.55-1.55.83-2.32z"/>
  </g>
</svg>