<?xml version='1.0' encoding='utf-8'?>
<!-- Generator: imaengine 6.0   -->
<svg xmlns:xlink="http://www.w3.org/1999/xlink" xmlns="http://www.w3.org/2000/svg" viewBox="0,0,550,139" style="enable-background:new 0 0 550 139;" version="1.1">
<defs/>
<g id="layer0">
<path d="M0,0L550,0L550,139L0,139L0,0Z" fill="#FFFFFF"/>
<path d="M430.02,26.31C431.56,27.43 433.07,28.61 434.48,29.9C433.07,33.66 431.81,37.53 430.03,41.14C427.93,44.88 425.19,48.31 422.75,51.84C420.76,54.65 419.77,58.02 418.08,61.11C416.17,64.65 414.01,67.88 412.9,71.81C409.34,83.75 404.43,95.45 401.46,107.55C399.82,114.2 400.42,120.71 401.61,127.37C402.37,129.6 399.28,131.54 398.08,133.14C396.06,132.44 394.03,131.76 392.03,131.01C389.55,128.82 387.65,126.37 387.19,123.01C385.61,117.94 384.45,112.93 383.54,107.7C382.36,93.28 379.35,79.25 379.4,64.68C378.72,63.99 378.01,63.34 377.27,62.72C376.35,64.35 375.54,66.03 374.73,67.72C374.19,67.48 373.65,67.25 373.11,67.01C372.54,66.43 371.97,65.84 371.4,65.25C372.94,61.56 374.51,57.9 376.29,54.31C377.44,51.54 378.83,49.1 378.29,46C378.14,42.6 376.84,39.82 375.45,36.8C376,34.87 377.32,33.08 378.5,31.47C380.27,30.53 382.15,29.63 384.09,29.06C388.09,29.57 391.08,31.89 393.88,34.61C392.43,37.35 392.78,40.02 392.76,43C392.77,47.46 391.14,51.51 391.02,55.96C390.82,63.66 390.86,71.37 391.45,79.06C391.72,86.45 392.39,93.77 394.02,100.99C394.33,102.67 395.3,103.86 396.33,105.15L397.23,106.3C400.18,102.76 401.23,98.1 402.61,93.71C403.87,88.75 405.39,84 407.22,79.23C410.67,70.23 412.84,60.05 417.78,51.77C419.47,49.08 418.04,46.84 417.4,44.09C418.82,42.22 420.29,40.54 421.47,38.5C424.23,33.97 425.25,29.34 430.02,26.31Z" fill="#CE0000"/>
<path d="M519.64,27.41C517.56,31.03 513.61,33.72 510.56,36.59C505.91,40.5 502.67,45.17 498.98,49.97C494.68,56.1 490.53,62.46 486.88,68.99C484.01,74.03 481.21,79.01 479.42,84.55C476.39,93.4 471.28,101.84 468.98,110.85C467.27,118.32 466.34,125.56 462.86,132.51C461.51,132.48 460.16,132.44 458.81,132.42C457.5,131.22 456.24,129.96 454.96,128.74C455.07,123.57 456.25,118.59 456.68,113.45C457.14,109.15 458.89,105.41 458.78,101.01C458.61,92.86 459.73,84.88 460.65,76.81C460.76,75.46 460.82,74.1 460.83,72.74C456.75,76.16 454.67,80.46 451.82,84.82C447.57,91.4 443.94,98.21 439.99,104.98C435.26,112.98 431.45,121.78 427.74,130.33C425.79,130.01 423.85,129.69 421.93,129.24C418.11,126.49 420.1,122.95 419.92,119C420.16,115.22 419.18,112.02 420.65,108.67C422.87,103.67 422.73,97.42 423.15,91.99C423.59,82.41 426.15,73.43 429.53,64.52C431.86,57.08 434.54,49.79 437.72,42.67C439.14,38.59 441.44,35.05 443.62,31.36C448.37,30.86 452.26,30.77 455.57,34.75C452.95,42.82 450.01,50.95 446.65,58.74C442.32,66.53 439.32,74.83 435.87,83.03C434.27,86.39 431.92,89.21 430.75,92.82C428.88,98.69 427.64,104.5 430.02,110.46L430.95,109.13C434.52,104.21 437.14,98.57 440.43,93.44C447.64,81.48 455.34,69.24 461.73,56.76C463.2,53.66 463.63,50.12 464.76,46.87C467.47,46.28 470.14,45.58 472.81,44.84C473.75,45.75 474.68,46.64 475.59,47.57C473.14,57.67 470,67.56 467.62,77.69C464.66,86.35 464.02,94.15 465.18,103.23C465.87,102.02 466.54,100.8 467.18,99.57C472.23,89.08 477.39,78.46 483.63,68.63C491.96,57.41 497.41,46.15 507.63,36.64C511.27,33.42 515,29.09 519.64,27.41Z" fill="#CE0000"/>
<path d="M434.48,29.9C435.3,30.85 436.03,31.83 436.45,33.02C435.39,36.29 433.88,39.41 432.73,42.65C429.43,48.51 424.34,53.68 421.97,60.02C420.02,64.83 416.76,68.41 415.32,73.36C411.59,86.29 405.88,98.94 403.18,112.13C401.98,118.6 403.03,124.56 403.94,130.94C403.11,132.74 401.25,134.17 399.95,135.67C397.12,134.27 394.4,133.16 392.03,131.01C394.03,131.76 396.06,132.44 398.08,133.14C399.28,131.54 402.37,129.6 401.61,127.37C400.42,120.71 399.82,114.2 401.46,107.55C404.43,95.45 409.34,83.75 412.9,71.81C414.01,67.88 416.17,64.65 418.08,61.11C419.77,58.02 420.76,54.65 422.75,51.84C425.19,48.31 427.93,44.88 430.03,41.14C431.81,37.53 433.07,33.66 434.48,29.9Z" fill="#39177A"/>
<path d="M522.36,29.58C518.82,34.16 513.72,37.53 509.7,41.7C501.64,50.51 495.65,60.31 489.41,70.41C486.68,75.69 483.28,80.99 481.66,86.7C478.74,95.31 473.8,103.56 471.34,112.34C469.69,119.85 468.42,128.35 464.79,135.17C462.65,134.5 460.59,133.85 458.81,132.42C460.16,132.44 461.51,132.48 462.86,132.51C466.34,125.56 467.27,118.32 468.98,110.85C471.28,101.84 476.39,93.4 479.42,84.55C481.21,79.01 484.01,74.03 486.88,68.99C491.4,63.61 494.66,57.49 498.84,51.86C503.59,44.58 510.1,38.3 516.68,32.68C518.46,31.11 520.02,30.18 522.36,29.58Z" fill="#39177A"/>
<path d="M393.88,34.61C394.43,35.14 394.97,35.69 395.5,36.25C395.38,38.49 395.19,40.73 395.25,42.98C395.47,48.84 392.85,54.07 393.21,59.96C392.78,70.04 393.55,80 394.16,90.04C394.65,95.11 395.77,100.08 396.33,105.15C395.3,103.86 394.33,102.67 394.02,100.99C392.39,93.77 391.72,86.45 391.45,79.06C390.86,71.37 390.82,63.66 391.02,55.96C391.14,51.51 392.77,47.46 392.76,43C392.78,40.02 392.43,37.35 393.88,34.61Z" fill="#39177A"/>
<path d="M455.57,34.75C456.32,36.01 457.08,37.48 457.18,38.97C456.63,41.54 455.41,44.01 454.5,46.48C452.03,52.75 450.03,59.77 446.48,65.48C444.19,69.18 443.45,73.46 441.31,77.25C439.29,81.11 438.75,85.79 436.03,89.05C431.84,94.93 430.96,102.1 430.95,109.13L430.02,110.46C427.64,104.5 428.88,98.69 430.75,92.82C431.92,89.21 434.27,86.39 435.87,83.03C439.32,74.83 442.32,66.53 446.65,58.74C450.01,50.95 452.95,42.82 455.57,34.75Z" fill="#39177A"/>
<path d="M475.59,47.57C478.97,50.79 476.54,53.97 475.79,57.75C473.43,65.31 471.64,72.98 469.63,80.64C467.54,86.77 466.36,93.08 467.18,99.57C466.54,100.8 465.87,102.02 465.18,103.23C464.02,94.15 464.66,86.35 467.62,77.69C470,67.56 473.14,57.67 475.59,47.57Z" fill="#39177A"/>
<path d="M377.27,62.72C378.01,63.34 378.72,63.99 379.4,64.68C376.91,69.24 374.76,73.96 372.76,78.75C368.86,88.15 364.67,97.42 360.83,106.84C357.21,114.92 355.19,123.63 351.79,131.82C351.02,133.45 350.12,135.64 348.43,136.5C345.81,137.66 343.11,136.86 340.75,135.49C342.76,134.99 344.97,134.68 346.86,133.77C348.46,132.41 349.37,130.09 350.18,128.19C352.38,122.27 354.28,116.24 356.34,110.28C359.75,101.51 363.59,92.91 367.27,84.25C369.46,79.13 371.47,74.05 374.04,69.08L374.73,67.72C375.54,66.03 376.35,64.35 377.27,62.72Z" fill="#39177A"/>
<path d="M371.236,65.3851C373.07,61.6401 373.642,66.8946 375.122,66.8546C372.552,71.8246 369.46,79.13 367.27,84.25C363.59,92.91 359.75,101.51 356.34,110.28C354.28,116.24 352.38,122.27 350.18,128.19C349.37,130.09 348.46,132.41 346.86,133.77C344.97,134.68 342.76,134.99 340.75,135.49C339.26,133.81 337.44,132.27 337.16,129.91C336.63,126.2 336.83,122.48 335.86,118.81C335.15,114.22 334.9,108.81 338.28,105.17C340.42,104.28 342.79,103.85 345.03,103.3C345.76,104.02 346.48,104.73 347.19,105.46C345.56,110.67 344.99,115.82 345.26,121.27C346.25,120 347.2,118.7 348.07,117.34C351.25,113.07 352.57,108.42 354.63,103.56C357.37,97.01 359.74,90.35 363.01,84.03C365.07,78.98 368.886,70.3151 371.236,65.3851Z" fill="#CE0000"/>
<path d="M460.83,72.74C460.82,74.1 460.76,75.46 460.65,76.81C455.07,85.31 449.63,93.82 444.75,102.75C439,112.33 434.11,122.37 429.99,132.75C426.73,132.38 424.35,131.5 421.93,129.24C423.85,129.69 425.79,130.01 427.74,130.33C431.45,121.78 435.26,112.98 439.99,104.98C443.94,98.21 447.57,91.4 451.82,84.82C454.67,80.46 456.75,76.16 460.83,72.74Z" fill="#39177A"/>
<path d="M347.19,105.46C347.79,106.06 348.37,106.67 348.94,107.29C348.44,110.64 347.96,113.93 348.07,117.34C347.2,118.7 346.25,120 345.26,121.27C344.99,115.82 345.56,110.67 347.19,105.46Z" fill="#39177A"/>
<g transform="matrix(1 0 0 1 16.2812 23.4956)">
<path d="M138.42,9.86784C139.14,15.5678 138.88,21.1778 138.9,26.8978C138.88,34.5078 138.94,42.1178 138.85,49.7278C142.97,47.6378 146.48,45.3278 151.36,45.8578C154.86,46.1378 157.43,48.1678 159.62,50.7378C161.24,56.0378 161.59,61.4478 159.03,66.5178C156.86,70.8378 152.28,73.7078 147.43,73.5678C144.58,73.4378 142.07,72.2078 139.43,71.7278C133.78,72.4678 128.14,73.1078 122.43,72.7778C118.36,72.4978 114.33,72.5778 110.27,72.7578C109.1,72.7078 107.93,72.6078 106.77,72.4678C108.22,71.4378 109.72,70.4778 111.22,69.5078C111.42,63.4778 111.75,57.2878 110.98,51.2878C109.17,49.7378 107.9,49.6278 105.6,49.8178C103.74,49.8678 101.12,50.3578 99.8901,51.8478C99.2501,52.8178 98.8301,53.6978 98.8101,54.8978C98.5801,59.6978 98.8001,64.5378 98.9101,69.3478C99.6701,69.8678 100.43,70.3878 101.19,70.9278C101.99,71.5178 102.78,72.1578 103.55,72.8378C98.7801,72.6378 94.0701,72.4978 89.3001,72.7878C88.2801,72.7878 87.2601,72.7778 86.2401,72.7578C87.7701,71.5878 89.3601,70.5278 90.9501,69.4578C91.3001,63.3878 91.3301,57.3178 90.8101,51.2678C89.1001,50.2678 87.6701,49.5778 85.6201,49.7378C83.7501,49.6278 81.5101,50.1278 80.1501,51.4978C79.6201,52.0278 79.1301,52.5678 78.6601,53.1478C78.0401,58.4878 78.4701,64.0178 78.6401,69.3878C79.3201,69.8578 79.9801,70.3278 80.6501,70.7978C81.4501,71.3978 82.2301,72.0178 82.9901,72.6778C76.7801,72.5378 70.6301,72.6878 64.4201,72.7978C57.9101,72.2778 51.8301,72.3378 45.3201,72.8678C44.2401,72.7578 43.1601,72.6178 42.0901,72.4578C44.3101,70.6378 46.8601,70.3878 49.5801,69.8078C48.5701,65.7278 47.3101,61.7078 45.7201,57.8178L44.9901,56.1278C39.0401,55.7578 32.8501,55.7078 26.9101,56.1478C25.4001,60.5678 24.2101,65.0878 23.3001,69.6578C24.1601,69.8678 25.0101,70.0678 25.8701,70.2778C27.8001,70.7378 29.3901,71.1878 30.7601,72.7278C24.5601,72.6978 18.4701,72.1778 12.2801,72.7978C11.1401,72.7778 10.0001,72.7278 8.86013,72.6478C11.7501,69.3778 16.2901,71.5178 18.0101,67.4878C23.3501,57.9678 27.7001,47.6578 32.2801,37.7478C35.3701,31.3478 37.5901,24.6578 40.0201,17.9978C40.5701,18.7578 41.1001,19.5278 41.6301,20.2978C42.3301,26.1278 44.4401,31.3678 46.5201,36.7978C49.9901,45.6378 53.4201,54.4978 57.0201,63.2778C58.1401,65.8878 59.0101,68.3378 61.1101,70.3578C64.1801,70.8278 67.2001,70.8378 70.2901,70.5678C71.0401,64.6878 70.9201,58.6678 70.6301,52.7578C70.5601,51.8978 70.4901,51.0378 70.4101,50.1778C69.0001,50.1578 67.5801,50.1078 66.1601,50.0378C65.2401,49.6978 64.3201,49.3478 63.4001,48.9678C68.1801,47.7178 73.0301,46.8878 77.7101,45.2778C77.9901,46.0678 78.2501,46.8578 78.4901,47.6578C77.9101,49.6778 79.3401,50.3578 80.8901,49.1478C84.3801,47.4678 88.4701,45.7578 92.4001,45.8178C95.3201,45.7478 97.3001,48.1878 99.3701,49.8878C103.6,48.1178 108.7,45.4478 113.36,45.8378C115.66,45.9278 116.99,47.3578 118.61,48.7578C119.22,55.9578 118.41,63.2978 119.62,70.3778L121.41,70.7778C124.35,71.4678 127.87,71.4978 130.47,69.8178C131.52,63.9978 130.89,57.7978 131.05,51.8978C130.87,40.4278 131.49,28.8778 130.62,17.4378C130.65,16.4078 130.21,15.7578 129.28,15.4678C127.57,15.1878 125.85,14.9878 124.15,14.6978C128.72,12.6678 133.63,11.3378 138.42,9.86784Z" fill="#39177A"/>
<path d="M129.037,15.7105C129.967,16.0005 130.407,16.6505 130.377,17.6805L128.457,18.1305C126.057,17.6005 127.187,15.8405 129.037,15.7105Z" fill="#FECC05"/>
<path d="M270.417,16.3505C270.467,18.3605 270.387,20.3505 270.187,22.3505C269.347,28.1905 269.217,34.0605 269.327,39.9605L268.147,41.2005C267.557,38.4005 267.427,35.4405 266.547,32.7205C265.297,29.6605 262.937,26.9805 260.367,24.9405C254.497,19.8005 244.877,21.2005 239.807,26.7705C235.287,31.6205 233.607,38.6605 233.337,45.1205C233.087,51.8705 234.397,59.1305 238.997,64.3505C243.627,70.3905 251.507,72.0505 258.527,69.4605C263.467,67.8305 266.177,64.1505 270.437,61.5505C269.267,65.6405 266.247,67.6005 263.257,70.2805C254.057,75.4505 243.187,75.4005 233.937,70.3805C229.977,67.1205 226.757,63.1405 225.117,58.2405C222.887,51.5405 223.047,43.9705 225.357,37.3105C228.807,27.7205 238.057,20.9405 248.147,20.0405C255.067,19.2505 261.287,21.0705 267.757,23.2005C268.467,20.7205 268.687,18.4005 270.417,16.3505Z" fill="#39177A"/>
<path d="M272.777,18.6605C272.707,22.0605 272.267,25.4105 271.957,28.7805C271.497,33.6805 271.727,38.5705 271.137,43.4705C270.507,42.3105 269.887,41.1505 269.327,39.9605C269.217,34.0605 269.347,28.1905 270.187,22.3505C271.007,21.0905 271.877,19.8705 272.777,18.6605Z" fill="#FECC05"/>
<path d="M41.6301,20.2978C44.3801,23.5778 44.7001,27.9478 46.2301,32.0878C50.7401,45.0078 56.3001,57.5578 61.1101,70.3578C59.0101,68.3378 58.1401,65.8878 57.0201,63.2778C53.4201,54.4978 49.9901,45.6378 46.5201,36.7978C44.4401,31.3678 42.3301,26.1278 41.6301,20.2978Z" fill="#FECC05"/>
<path d="M260.367,24.9405C255.607,23.8905 251.127,23.2205 246.597,25.5605C239.737,29.0205 236.637,36.8405 235.857,44.0905C234.917,51.1105 236.197,57.9005 238.997,64.3505C234.397,59.1305 233.087,51.8705 233.337,45.1205C233.607,38.6605 235.287,31.6205 239.807,26.7705C244.877,21.2005 254.497,19.8005 260.367,24.9405Z" fill="#FECC05"/>
<path d="M36.2675,33.7505L36.6275,34.7305C34.8275,39.5305 32.4975,44.1605 30.0775,48.6705C31.7875,43.6205 33.7175,38.4405 36.2675,33.7505Z" fill="#FFFFFF"/>
<path d="M36.8701,34.4878C37.2201,35.4078 37.5801,36.3278 37.9401,37.2478C35.4301,42.6878 33.1901,48.2478 31.1501,53.8678C30.1101,53.8578 29.0701,53.8478 28.0401,53.8278C28.6201,52.4078 29.2101,50.9878 29.8201,49.5778L30.0701,48.9878L30.3201,48.4278C32.7401,43.9178 35.0701,39.2878 36.8701,34.4878Z" fill="#FECC05"/>
<path d="M37.9401,37.2478C40.1001,42.7578 42.1401,48.3078 44.1601,53.8678C39.8201,53.9078 35.4801,53.9078 31.1501,53.8678C33.1901,48.2478 35.4301,42.6878 37.9401,37.2478Z" fill="#FFFFFF"/>
<path d="M191.76,51.5578C192,53.7878 192.29,55.9978 192.51,58.2278C185.63,58.7078 178.76,58.3778 171.87,58.5878C172.57,61.3378 173.3,63.9178 175.19,66.0978C177.39,67.6378 179.57,68.9078 182.35,68.8278C185.71,68.8478 189.02,66.0278 191.96,64.5678C191.4,65.9978 190.8,67.4178 190.2,68.8378C187.41,70.5378 185.04,72.4878 181.76,73.1678C177.8,74.0478 174.14,73.1878 170.38,71.9478C164.75,67.6078 162.91,60.7478 165.68,54.1578C170,44.3078 185.51,42.7978 191.76,51.5578Z" fill="#39177A"/>
<path d="M207.107,45.7105C207.547,46.3405 207.987,46.9605 208.427,47.5905C208.337,49.5405 208.227,51.4805 208.157,53.4205C208.967,52.3105 209.777,51.1805 210.607,50.0705C212.347,47.8705 214.127,45.7905 217.157,45.6305C218.997,45.4905 220.407,46.8605 221.817,47.8405C221.567,49.5305 221.327,51.2105 221.067,52.9005C219.597,53.4105 218.117,53.8905 216.627,54.3605L215.857,53.6605C215.047,52.9205 214.247,52.1905 213.397,51.4905L212.927,51.1005C211.727,51.6005 210.957,52.5005 210.607,53.8205C208.557,59.0905 208.207,64.3205 208.987,69.8905L210.837,70.4205C212.967,71.0105 214.947,71.2705 216.537,72.9805C210.357,72.9705 204.247,72.5405 198.067,73.1005C196.857,72.9405 195.677,72.7205 194.497,72.4305C196.497,71.5505 198.507,70.8405 200.597,70.2305C201.087,64.4505 201.057,58.5805 200.847,52.7805C200.657,51.9305 200.447,51.0705 200.217,50.2205C198.677,50.3405 197.127,50.4805 195.587,50.6505C194.967,50.1105 194.347,49.5505 193.727,48.9905C198.257,48.0805 202.737,47.2605 207.107,45.7105Z" fill="#39177A"/>
<path d="M298.517,46.7405C302.737,47.7005 305.887,50.4505 308.357,53.8905C309.107,59.5605 309.607,64.7705 305.147,69.1105C298.437,75.2205 290.167,74.3505 282.007,72.2405C279.557,70.3805 277.137,68.1905 276.017,65.2405C273.977,59.7105 275.477,52.8805 280.407,49.3605C285.357,45.7005 292.717,45.3905 298.517,46.7405Z" fill="#39177A"/>
<path d="M324.117,45.7205C324.587,46.3705 325.057,47.0205 325.507,47.6805C324.487,49.6105 325.907,50.7505 327.617,49.4405C331.427,47.5705 335.857,45.9305 340.147,46.0505C342.487,46.0505 343.977,47.3805 345.657,48.7905C346.807,55.7405 345.777,62.7405 346.617,69.6705C347.217,70.1005 347.857,70.4905 348.507,70.8405C349.197,71.0305 349.887,71.2105 350.577,71.3905C351.147,71.9805 351.717,72.5705 352.287,73.1505C347.167,72.7405 342.137,72.7005 337.017,72.9905C335.657,73.0105 334.297,72.9905 332.927,72.9405C334.667,71.8005 336.507,70.8405 338.367,69.9005C338.757,63.9705 338.997,57.9005 338.267,51.9905C337.787,51.3505 337.297,50.7205 336.787,50.1005C335.307,50.0005 333.837,49.9805 332.357,50.0305C330.467,49.9805 328.217,50.3105 326.847,51.7405C325.737,52.8505 325.157,53.4705 325.207,55.1505C325.097,59.4005 325.017,63.7205 325.307,67.9605C325.317,69.0505 325.917,69.9205 327.097,70.5505C328.247,71.3305 329.387,72.1105 330.427,73.0405C325.687,72.9805 320.987,72.5905 316.237,72.9705C314.417,73.0305 312.597,72.9705 310.777,72.8605C312.847,71.7205 315.147,70.9805 317.147,69.7205C317.907,64.2305 317.587,58.5205 317.367,52.9905C317.297,52.1405 317.217,51.2905 317.147,50.4405C315.737,50.3905 314.337,50.3205 312.937,50.2205C311.907,50.0305 310.887,49.8205 309.867,49.5905C314.427,47.7805 319.417,47.1805 324.117,45.7205Z" fill="#39177A"/>
<path d="M78.4901,47.6578C79.7101,47.5278 80.5001,48.0178 80.8901,49.1478C79.3401,50.3578 77.9101,49.6778 78.4901,47.6578Z" fill="#FECC05"/>
<path d="M179.137,47.9005C178.367,49.1705 177.337,49.4105 176.037,48.6505C176.887,47.6505 177.917,47.4005 179.137,47.9005Z" fill="#FFFFFF"/>
<path d="M179.137,47.9005C180.607,48.4105 182.057,48.9605 183.447,49.6405C181.667,50.0605 179.747,50.3305 178.047,51.0605C176.237,52.4205 175.257,54.9905 174.007,56.8505L171.917,56.8905C172.507,53.2505 173.267,51.1705 176.037,48.6505C177.337,49.4105 178.367,49.1705 179.137,47.9005Z" fill="#FECC05"/>
<path d="M208.427,47.5905C209.157,48.4205 209.877,49.2405 210.607,50.0705C209.777,51.1805 208.967,52.3105 208.157,53.4205C208.227,51.4805 208.337,49.5405 208.427,47.5905Z" fill="#FECC05"/>
<path d="M221.817,47.8405C223.567,49.9505 224.817,54.4205 221.747,55.9205C219.397,56.8605 218.337,55.8205 216.627,54.3605C218.117,53.8905 219.597,53.4105 221.067,52.9005C221.327,51.2105 221.567,49.5305 221.817,47.8405Z" fill="#FECC05"/>
<path d="M290.337,48.2305C292.977,47.4505 295.157,48.3805 297.357,49.7605C293.877,50.3805 290.617,50.1305 288.307,53.2705C284.637,58.3405 285.827,64.7105 286.927,70.4005C283.257,66.0905 282.887,60.3605 284.147,55.0405C285.067,51.8605 286.887,48.9705 290.337,48.2305Z" fill="#FECC05"/>
<path d="M325.507,47.6805C326.657,47.9205 327.357,48.5105 327.617,49.4405C325.907,50.7505 324.487,49.6105 325.507,47.6805Z" fill="#FECC05"/>
<path d="M29.8275,49.2305L29.5775,49.8205L29.8275,49.2305Z" fill="#FFFFFF"/>
<path d="M118.61,48.7578C120.3,50.7178 120.97,52.3978 121.11,54.9878C121.36,60.2478 121.08,65.5178 121.41,70.7778L119.62,70.3778C118.41,63.2978 119.22,55.9578 118.61,48.7578Z" fill="#FECC05"/>
<path d="M145.47,49.5178C147.53,49.2878 149.03,50.3978 150.67,51.4478C146.95,52.0578 143.39,51.9578 141.06,55.4178C140.46,59.9878 140.96,64.6778 140.52,69.2878C139.84,68.7678 139.16,68.2378 138.48,67.6978C138.53,62.7878 138.52,57.8778 138.51,52.9678C140.58,51.5678 142.9,49.6878 145.47,49.5178Z" fill="#FECC05"/>
<path d="M345.657,48.7905C346.997,50.3505 348.087,51.9905 348.237,54.1205C348.687,59.6605 348.357,65.2805 348.507,70.8405C347.857,70.4905 347.217,70.1005 346.617,69.6705C345.777,62.7405 346.807,55.7405 345.657,48.7905Z" fill="#FECC05"/>
<path d="M66.1601,50.0378C67.5801,50.1078 69.0001,50.1578 70.4101,50.1778C70.4901,51.0378 70.5601,51.8978 70.6301,52.7578C69.1601,52.4578 67.6901,52.1678 66.2201,51.8778C66.2001,51.2678 66.1801,50.6478 66.1601,50.0378Z" fill="#FECC05"/>
<path d="M85.3775,49.9805C83.7675,51.6305 82.2575,52.5905 79.9075,51.7405C81.2675,50.3705 83.5075,49.8705 85.3775,49.9805Z" fill="#FFFFFF"/>
<path d="M85.6201,49.7378C87.6701,49.5778 89.1001,50.2678 90.8101,51.2678C87.3601,51.9878 84.0501,52.8878 80.8201,54.3178C80.5901,59.8078 80.6501,65.2978 80.6501,70.7978C79.9801,70.3278 79.3201,69.8578 78.6401,69.3878C78.4701,64.0178 78.0401,58.4878 78.6601,53.1478C79.1301,52.5678 79.6201,52.0278 80.1501,51.4978C82.5001,52.3478 84.0101,51.3878 85.6201,49.7378Z" fill="#FECC05"/>
<path d="M105.357,50.0605C103.617,51.8205 102.257,53.2705 99.6475,52.0905C100.877,50.6005 103.497,50.1105 105.357,50.0605Z" fill="#FFFFFF"/>
<path d="M105.6,49.8178C107.9,49.6278 109.17,49.7378 110.98,51.2878C107.92,52.0778 103.42,52.5178 101.17,54.9678C100.6,60.2278 100.98,65.6478 101.19,70.9278C100.43,70.3878 99.6701,69.8678 98.9101,69.3478C98.8001,64.5378 98.5801,59.6978 98.8101,54.8978C98.8301,53.6978 99.2501,52.8178 99.8901,51.8478C102.5,53.0278 103.86,51.5778 105.6,49.8178Z" fill="#FECC05"/>
<path d="M183.69,49.3978C184.7,51.7178 185.24,54.1178 185.61,56.6078C181.82,56.6878 178.04,56.6278 174.25,56.6078C175.5,54.7478 176.48,52.1778 178.29,50.8178C179.99,50.0878 181.91,49.8178 183.69,49.3978Z" fill="#FFFFFF"/>
<path d="M195.587,50.6505C197.127,50.4805 198.677,50.3405 200.217,50.2205C200.447,51.0705 200.657,51.9305 200.847,52.7805C198.787,52.4905 197.087,52.2805 195.587,50.6505Z" fill="#FECC05"/>
<path d="M297.357,49.7605C300.997,54.5305 301.357,60.8605 299.307,66.3605C298.157,69.1505 295.977,71.3905 292.897,71.8805C290.657,72.3105 288.887,71.3105 286.927,70.4005C285.827,64.7105 284.637,58.3405 288.307,53.2705C290.617,50.1305 293.877,50.3805 297.357,49.7605Z" fill="#FFFFFF"/>
<path d="M312.937,50.2205C314.337,50.3205 315.737,50.3905 317.147,50.4405C317.217,51.2905 317.297,52.1405 317.367,52.9905C315.867,52.7005 314.377,52.4105 312.877,52.1305C312.897,51.4905 312.917,50.8605 312.937,50.2205Z" fill="#FECC05"/>
<path d="M332.357,50.0305C330.737,51.6105 329.167,52.6505 326.847,51.7405C328.217,50.3105 330.467,49.9805 332.357,50.0305Z" fill="#FFFFFF"/>
<path d="M332.357,50.0305C333.837,49.9805 335.307,50.0005 336.787,50.1005C337.297,50.7205 337.787,51.3505 338.267,51.9905C334.307,52.0305 331.077,52.9205 327.497,54.5305C327.207,59.8605 327.347,65.2105 327.097,70.5505C325.917,69.9205 325.317,69.0505 325.307,67.9605C325.017,63.7205 325.097,59.4005 325.207,55.1505C325.157,53.4705 325.737,52.8505 326.847,51.7405C329.167,52.6505 330.737,51.6105 332.357,50.0305Z" fill="#FECC05"/>
<path d="M159.62,50.7378C166.53,57.8278 163.15,73.1978 152.96,75.4078C147.81,76.9578 144.08,73.2678 139.06,74.3678C129.17,75.7078 119.41,74.4278 109.5,75.0778C109.76,74.3078 110.01,73.5278 110.27,72.7578C114.33,72.5778 118.36,72.4978 122.43,72.7778C128.14,73.1078 133.78,72.4678 139.43,71.7278C142.07,72.2078 144.58,73.4378 147.43,73.5678C152.28,73.7078 156.86,70.8378 159.03,66.5178C161.59,61.4478 161.24,56.0378 159.62,50.7378Z" fill="#FECC05"/>
<path d="M212.927,51.1005L213.397,51.4905C212.907,52.8305 212.277,54.0905 210.607,53.8205C210.957,52.5005 211.727,51.6005 212.927,51.1005Z" fill="#FFFFFF"/>
<path d="M213.397,51.4905C214.247,52.1905 215.047,52.9205 215.857,53.6605C214.597,54.5605 213.307,55.1705 212.637,56.6505C210.697,60.7405 210.867,65.9805 210.837,70.4205L208.987,69.8905C208.207,64.3205 208.557,59.0905 210.607,53.8205C212.277,54.0905 212.907,52.8305 213.397,51.4905Z" fill="#FECC05"/>
<path d="M150.67,51.4478C153.57,55.9378 153.71,61.4978 151.96,66.4378C150.96,68.9178 149.15,70.9878 146.39,71.4278C144.03,71.7478 142.33,70.5878 140.52,69.2878C140.96,64.6778 140.46,59.9878 141.06,55.4178C143.39,51.9578 146.95,52.0578 150.67,51.4478Z" fill="#FFFFFF"/>
<path d="M191.517,51.8005C193.997,54.4305 194.337,57.4205 194.457,60.8805C187.677,60.9905 180.917,60.8005 174.137,61.0405C174.417,62.8105 174.697,64.5705 174.947,66.3405C173.057,64.1605 172.327,61.5805 171.627,58.8305C178.517,58.6205 185.387,58.9505 192.267,58.4705C192.047,56.2405 191.757,54.0305 191.517,51.8005Z" fill="#FECC05"/>
<path d="M308.357,53.8905C312.557,58.7805 311.967,66.9105 307.387,71.3505C304.397,74.2905 300.207,75.6405 296.107,75.9605C291.037,76.2805 286.027,75.6005 282.007,72.2405C290.167,74.3505 298.437,75.2205 305.147,69.1105C309.607,64.7705 309.107,59.5605 308.357,53.8905Z" fill="#FECC05"/>
<path d="M26.9101,56.1478C32.8501,55.7078 39.0401,55.7578 44.9901,56.1278L45.7201,57.8178C40.2801,58.0878 34.8801,58.0178 29.4301,58.0278C27.9601,62.0378 26.7301,66.0878 25.8701,70.2778C25.0101,70.0678 24.1601,69.8678 23.3001,69.6578C24.2101,65.0878 25.4001,60.5678 26.9101,56.1478Z" fill="#FECC05"/>
<path d="M272.637,63.9305C270.897,69.3105 265.007,73.0305 259.977,74.9305C251.377,77.6705 240.777,76.7905 233.937,70.3805C243.187,75.4005 254.057,75.4505 263.257,70.2805C266.747,68.6105 269.367,65.9305 272.637,63.9305Z" fill="#FECC05"/>
<path d="M194.397,66.8405C190.517,76.2805 177.587,79.2005 170.137,72.1905C173.897,73.4305 177.557,74.2905 181.517,73.4105C184.797,72.7305 187.167,70.7805 189.957,69.0805C191.397,68.2505 192.887,67.5205 194.397,66.8405Z" fill="#FECC05"/>
<path d="M12.2801,72.7978C18.4701,72.1778 24.5601,72.6978 30.7601,72.7278C31.4501,73.4778 32.1201,74.2378 32.7801,75.0178C25.6701,74.7678 18.6901,74.5078 11.5901,75.1778C11.8101,74.3878 12.0401,73.5978 12.2801,72.7978Z" fill="#FECC05"/>
<path d="M45.3201,72.8678C51.8301,72.3378 57.9101,72.2778 64.4201,72.7978C70.6301,72.6878 76.7801,72.5378 82.9901,72.6778C83.8401,73.4178 84.6601,74.1778 85.4901,74.9478C77.1101,74.6778 68.7701,75.3678 60.4201,74.7178C55.2001,74.4678 50.1201,74.9578 44.9201,75.1878C45.0501,74.4078 45.1901,73.6378 45.3201,72.8678Z" fill="#FECC05"/>
<path d="M89.3001,72.7878C94.0701,72.4978 98.7801,72.6378 103.55,72.8378C104.28,73.5078 105.01,74.1978 105.72,74.8878C100.16,75.0078 94.6001,74.8478 89.0401,75.0678C89.1301,74.3078 89.2101,73.5478 89.3001,72.7878Z" fill="#FECC05"/>
<path d="M198.067,73.1005C204.247,72.5405 210.357,72.9705 216.537,72.9805C217.217,73.6905 217.887,74.4205 218.547,75.1505C211.447,75.1705 204.367,74.9405 197.267,75.3105C197.537,74.5705 197.797,73.8305 198.067,73.1005Z" fill="#FECC05"/>
<path d="M316.237,72.9705C320.987,72.5905 325.687,72.9805 330.427,73.0405C331.137,73.7305 331.847,74.4305 332.537,75.1405C326.267,75.1305 319.997,75.1505 313.727,75.1405C314.547,74.4005 315.387,73.6705 316.237,72.9705Z" fill="#FECC05"/>
<path d="M337.017,72.9905C342.137,72.7005 347.167,72.7405 352.287,73.1505C352.827,73.3905 353.367,73.6205 353.907,73.8605L353.217,75.2205C351.737,75.2605 350.257,75.2505 348.767,75.2605C344.557,75.1305 340.387,75.1405 336.187,75.3105C336.457,74.5405 336.737,73.7605 337.017,72.9905Z" fill="#FECC05"/>
</g>
</g>
</svg>
