<svg enable-background="new 0 0 550 139" viewBox="0 0 550 139" xmlns="http://www.w3.org/2000/svg"><path d="m0 0h550v139h-550z" fill="#fff"/><path d="m430.02 26.31c1.54 1.12 3.05 2.3 4.46 3.59-1.41 3.76-2.67 7.63-4.45 11.24-2.1 3.74-4.84 7.17-7.28 10.7-1.99 2.81-2.98 6.18-4.67 9.27-1.91 3.54-4.07 6.77-5.18 10.7-3.56 11.94-8.47 23.64-11.44 35.74-1.64 6.65-1.04 13.16.15 19.82.76 2.23-2.33 4.17-3.53 5.77-2.02-.7-4.05-1.38-6.05-2.13-2.48-2.19-4.38-4.64-4.84-8-1.58-5.07-2.74-10.08-3.65-15.31-1.18-14.42-4.19-28.45-4.14-43.02-.68-.69-1.39-1.34-2.13-1.96-.92 1.63-1.73 3.31-2.54 5-.54-.24-1.08-.47-1.62-.71-.57-.58-1.14-1.17-1.71-1.76 1.54-3.69 3.11-7.35 4.89-10.94 1.15-2.77 2.54-5.21 2-8.31-.15-3.4-1.45-6.18-2.84-9.2.55-1.93 1.87-3.72 3.05-5.33 1.77-.94 3.65-1.84 5.59-2.41 4 .51 6.99 2.83 9.79 5.55-1.45 2.74-1.1 5.41-1.12 8.39.01 4.46-1.62 8.51-1.74 12.96-.2 7.7-.16 15.41.43 23.1.27 7.39.94 14.71 2.57 21.93.31 1.68 1.28 2.87 2.31 4.16l.9 1.15c2.95-3.54 4-8.2 5.38-12.59 1.26-4.96 2.78-9.71 4.61-14.48 3.45-9 5.62-19.18 10.56-27.46 1.69-2.69.26-4.93-.38-7.68 1.42-1.87 2.89-3.55 4.07-5.59 2.76-4.53 3.78-9.16 8.55-12.19z" fill="#ce0000"/><path d="m519.64 27.41c-2.08 3.62-6.03 6.31-9.08 9.18-4.65 3.91-7.89 8.58-11.58 13.38-4.3 6.13-8.45 12.49-12.1 19.02-2.87 5.04-5.67 10.02-7.46 15.56-3.03 8.85-8.14 17.29-10.44 26.3-1.71 7.47-2.64 14.71-6.12 21.66-1.35-.03-2.7-.07-4.05-.09-1.31-1.2-2.57-2.46-3.85-3.68.11-5.17 1.29-10.15 1.72-15.29.46-4.3 2.21-8.04 2.1-12.44-.17-8.15.95-16.13 1.87-24.2.11-1.35.17-2.71.18-4.07-4.08 3.42-6.16 7.72-9.01 12.08-4.25 6.58-7.88 13.39-11.83 20.16-4.73 8-8.54 16.8-12.25 25.35-1.95-.32-3.89-.64-5.81-1.09-3.82-2.75-1.83-6.29-2.01-10.24.24-3.78-.74-6.98.73-10.33 2.22-5 2.08-11.25 2.5-16.68.44-9.58 3-18.56 6.38-27.47 2.33-7.44 5.01-14.73 8.19-21.85 1.42-4.08 3.72-7.62 5.9-11.31 4.75-.5 8.64-.59 11.95 3.39-2.62 8.07-5.56 16.2-8.92 23.99-4.33 7.79-7.33 16.09-10.78 24.29-1.6 3.36-3.95 6.18-5.12 9.79-1.87 5.87-3.11 11.68-.73 17.64l.93-1.33c3.57-4.92 6.19-10.56 9.48-15.69 7.21-11.96 14.91-24.2 21.3-36.68 1.47-3.1 1.9-6.64 3.03-9.89 2.71-.59 5.38-1.29 8.05-2.03.94.91 1.87 1.8 2.78 2.73-2.45 10.1-5.59 19.99-7.97 30.12-2.96 8.66-3.6 16.46-2.44 25.54.69-1.21 1.36-2.43 2-3.66 5.05-10.49 10.21-21.11 16.45-30.94 8.33-11.22 13.78-22.48 24-31.99 3.64-3.22 7.37-7.55 12.01-9.23z" fill="#ce0000"/><g fill="#39177a"><path d="m434.48 29.9c.82.95 1.55 1.93 1.97 3.12-1.06 3.27-2.57 6.39-3.72 9.63-3.3 5.86-8.39 11.03-10.76 17.37-1.95 4.81-5.21 8.39-6.65 13.34-3.73 12.93-9.44 25.58-12.14 38.77-1.2 6.47-.15 12.43.76 18.81-.83 1.8-2.69 3.23-3.99 4.73-2.83-1.4-5.55-2.51-7.92-4.66 2 .75 4.03 1.43 6.05 2.13 1.2-1.6 4.29-3.54 3.53-5.77-1.19-6.66-1.79-13.17-.15-19.82 2.97-12.1 7.88-23.8 11.44-35.74 1.11-3.93 3.27-7.16 5.18-10.7 1.69-3.09 2.68-6.46 4.67-9.27 2.44-3.53 5.18-6.96 7.28-10.7 1.78-3.61 3.04-7.48 4.45-11.24z"/><path d="m522.36 29.58c-3.54 4.58-8.64 7.95-12.66 12.12-8.06 8.81-14.05 18.61-20.29 28.71-2.73 5.28-6.13 10.58-7.75 16.29-2.92 8.61-7.86 16.86-10.32 25.64-1.65 7.51-2.92 16.01-6.55 22.83-2.14-.67-4.2-1.32-5.98-2.75 1.35.02 2.7.06 4.05.09 3.48-6.95 4.41-14.19 6.12-21.66 2.3-9.01 7.41-17.45 10.44-26.3 1.79-5.54 4.59-10.52 7.46-15.56 4.52-5.38 7.78-11.5 11.96-17.13 4.75-7.28 11.26-13.56 17.84-19.18 1.78-1.57 3.34-2.5 5.68-3.1z"/><path d="m393.88 34.61c.55.53 1.09 1.08 1.62 1.64-.12 2.24-.31 4.48-.25 6.73.22 5.86-2.4 11.09-2.04 16.98-.43 10.08.34 20.04.95 30.08.49 5.07 1.61 10.04 2.17 15.11-1.03-1.29-2-2.48-2.31-4.16-1.63-7.22-2.3-14.54-2.57-21.93-.59-7.69-.63-15.4-.43-23.1.12-4.45 1.75-8.5 1.74-12.96.02-2.98-.33-5.65 1.12-8.39z"/><path d="m455.57 34.75c.75 1.26 1.51 2.73 1.61 4.22-.55 2.57-1.77 5.04-2.68 7.51-2.47 6.27-4.47 13.29-8.02 19-2.29 3.7-3.03 7.98-5.17 11.77-2.02 3.86-2.56 8.54-5.28 11.8-4.19 5.88-5.07 13.05-5.08 20.08l-.93 1.33c-2.38-5.96-1.14-11.77.73-17.64 1.17-3.61 3.52-6.43 5.12-9.79 3.45-8.2 6.45-16.5 10.78-24.29 3.36-7.79 6.3-15.92 8.92-23.99z"/><path d="m475.59 47.57c3.38 3.22.95 6.4.2 10.18-2.36 7.56-4.15 15.23-6.16 22.89-2.09 6.13-3.27 12.44-2.45 18.93-.64 1.23-1.31 2.45-2 3.66-1.16-9.08-.52-16.88 2.44-25.54 2.38-10.13 5.52-20.02 7.97-30.12z"/><path d="m377.27 62.72c.74.62 1.45 1.27 2.13 1.96-2.49 4.56-4.64 9.28-6.64 14.07-3.9 9.4-8.09 18.67-11.93 28.09-3.62 8.08-5.64 16.79-9.04 24.98-.77 1.63-1.67 3.82-3.36 4.68-2.62 1.16-5.32.36-7.68-1.01 2.01-.5 4.22-.81 6.11-1.72 1.6-1.36 2.51-3.68 3.32-5.58 2.2-5.92 4.1-11.95 6.16-17.91 3.41-8.77 7.25-17.37 10.93-26.03 2.19-5.12 4.2-10.2 6.77-15.17l.69-1.36c.81-1.69 1.62-3.37 2.54-5z"/></g><path d="m371.236 65.3851c1.834-3.745 2.406 1.5095 3.886 1.4695-2.57 4.97-5.662 12.2754-7.852 17.3954-3.68 8.66-7.52 17.26-10.93 26.03-2.06 5.96-3.96 11.99-6.16 17.91-.81 1.9-1.72 4.22-3.32 5.58-1.89.91-4.1 1.22-6.11 1.72-1.49-1.68-3.31-3.22-3.59-5.58-.53-3.71-.33-7.43-1.3-11.1-.71-4.59-.96-10 2.42-13.64 2.14-.89 4.51-1.32 6.75-1.87.73.72 1.45 1.43 2.16 2.16-1.63 5.21-2.2 10.36-1.93 15.81.99-1.27 1.94-2.57 2.81-3.93 3.18-4.27 4.5-8.92 6.56-13.78 2.74-6.55 5.11-13.21 8.38-19.53 2.06-5.05 5.876-13.7149 8.226-18.6449z" fill="#ce0000"/><path d="m460.83 72.74c-.01 1.36-.07 2.72-.18 4.07-5.58 8.5-11.02 17.01-15.9 25.94-5.75 9.58-10.64 19.62-14.76 30-3.26-.37-5.64-1.25-8.06-3.51 1.92.45 3.86.77 5.81 1.09 3.71-8.55 7.52-17.35 12.25-25.35 3.95-6.77 7.58-13.58 11.83-20.16 2.85-4.36 4.93-8.66 9.01-12.08z" fill="#39177a"/><path d="m347.19 105.46c.6.6 1.18 1.21 1.75 1.83-.5 3.35-.98 6.64-.87 10.05-.87 1.36-1.82 2.66-2.81 3.93-.27-5.45.3-10.6 1.93-15.81z" fill="#39177a"/><g transform="translate(16.2812 23.4956)"><path d="m138.42 9.86784c.72 5.69996.46 11.30996.48 17.02996-.02 7.61.04 15.22-.05 22.83 4.12-2.09 7.63-4.4 12.51-3.87 3.5.28 6.07 2.31 8.26 4.88 1.62 5.3 1.97 10.71-.59 15.78-2.17 4.32-6.75 7.19-11.6 7.05-2.85-.13-5.36-1.36-8-1.84-5.65.74-11.29 1.38-17 1.05-4.07-.28-8.1-.2-12.16-.02-1.17-.05-2.34-.15-3.5-.29 1.45-1.03 2.95-1.99 4.45-2.96.2-6.03.53-12.22-.24-18.22-1.81-1.55-3.08-1.66-5.38-1.47-1.86.05-4.48.54-5.7099 2.03-.64.97-1.06 1.85-1.08 3.05-.23 4.8-.01 9.64.1 14.45.76.52 1.5199 1.04 2.2799 1.58.8.59 1.59 1.23 2.36 1.91-4.7699-.2-9.4799-.34-14.2499-.05-1.02 0-2.04-.01-3.06-.03 1.53-1.17 3.12-2.23 4.71-3.3.35-6.07.38-12.14-.14-18.19-1.71-1-3.14-1.69-5.19-1.53-1.87-.11-4.11.39-5.47 1.76-.53.53-1.02 1.07-1.49 1.65-.62 5.34-.19 10.87-.02 16.24.68.47 1.34.94 2.01 1.41.8.6 1.58 1.22 2.34 1.88-6.21-.14-12.36.01-18.57.12-6.51-.52-12.59-.46-19.1.07-1.08-.11-2.16-.25-3.23-.41 2.22-1.82 4.77-2.07 7.49-2.65-1.01-4.08-2.27-8.1-3.86-11.99l-.73-1.69c-5.95-.37-12.14-.42-18.08.02-1.51 4.42-2.7 8.94-3.61 13.51.86.21 1.71.41 2.57.62 1.93.46 3.52.91 4.89 2.45-6.2-.03-12.29-.55-18.48.07-1.14-.02-2.28-.07-3.41997-.15 2.88997-3.27 7.42997-1.13 9.14997-5.16 5.34-9.52 9.69-19.83 14.27-29.74 3.09-6.4 5.31-13.09 7.74-19.75.55.76 1.08 1.53 1.61 2.3.7 5.83 2.81 11.07 4.89 16.5 3.47 8.84 6.9 17.7 10.5 26.48 1.12 2.61 1.99 5.06 4.09 7.08 3.07.47 6.09.48 9.18.21.75-5.88.63-11.9.34-17.81-.07-.86-.14-1.72-.22-2.58-1.41-.02-2.83-.07-4.25-.14-.92-.34-1.84-.69-2.76-1.07 4.78-1.25 9.63-2.08 14.31-3.69.28.79.54 1.58.78 2.38-.58 2.02.85 2.7 2.4 1.49 3.49-1.68 7.58-3.39 11.51-3.33 2.92-.07 4.9 2.37 6.97 4.07 4.2299-1.77 9.3299-4.44 13.9899-4.05 2.3.09 3.63 1.52 5.25 2.92.61 7.2-.2 14.54 1.01 21.62l1.79.4c2.94.69 6.46.72 9.06-.96 1.05-5.82.42-12.02.58-17.92-.18-11.47.44-23.02-.43-34.46.03-1.03-.41-1.68-1.34-1.97-1.71-.28-3.43-.48-5.13-.77 4.57-2.03 9.48-3.36 14.27-4.82996z" fill="#39177a"/><path d="m129.037 15.7105c.93.29 1.37.94 1.34 1.97l-1.92.45c-2.4-.53-1.27-2.29.58-2.42z" fill="#fecc05"/><path d="m270.417 16.3505c.05 2.01-.03 4-.23 6-.84 5.84-.97 11.71-.86 17.61l-1.18 1.24c-.59-2.8-.72-5.76-1.6-8.48-1.25-3.06-3.61-5.74-6.18-7.78-5.87-5.14-15.49-3.74-20.56 1.83-4.52 4.85-6.2 11.89-6.47 18.35-.25 6.75 1.06 14.01 5.66 19.23 4.63 6.04 12.51 7.7 19.53 5.11 4.94-1.63 7.65-5.31 11.91-7.91-1.17 4.09-4.19 6.05-7.18 8.73-9.2 5.17-20.07 5.12-29.32.1-3.96-3.26-7.18-7.24-8.82-12.14-2.23-6.7-2.07-14.27.24-20.93 3.45-9.59 12.7-16.37 22.79-17.27 6.92-.79 13.14 1.03 19.61 3.16.71-2.48.93-4.8 2.66-6.85z" fill="#39177a"/><path d="m272.777 18.6605c-.07 3.4-.51 6.75-.82 10.12-.46 4.9-.23 9.79-.82 14.69-.63-1.16-1.25-2.32-1.81-3.51-.11-5.9.02-11.77.86-17.61.82-1.26 1.69-2.48 2.59-3.69z" fill="#fecc05"/><path d="m41.6301 20.2978c2.75 3.28 3.07 7.65 4.6 11.79 4.51 12.92 10.07 25.47 14.88 38.27-2.1-2.02-2.97-4.47-4.09-7.08-3.6-8.78-7.03-17.64-10.5-26.48-2.08-5.43-4.19-10.67-4.89-16.5z" fill="#fecc05"/><path d="m260.367 24.9405c-4.76-1.05-9.24-1.72-13.77.62-6.86 3.46-9.96 11.28-10.74 18.53-.94 7.02.34 13.81 3.14 20.26-4.6-5.22-5.91-12.48-5.66-19.23.27-6.46 1.95-13.5 6.47-18.35 5.07-5.57 14.69-6.97 20.56-1.83z" fill="#fecc05"/><path d="m36.2675 33.7505.36.98c-1.8 4.8-4.13 9.43-6.55 13.94 1.71-5.05 3.64-10.23 6.19-14.92z" fill="#fff"/><path d="m36.8701 34.4878c.35.92.71 1.84 1.07 2.76-2.51 5.44-4.75 11-6.79 16.62-1.04-.01-2.08-.02-3.11-.04.58-1.42 1.17-2.84 1.78-4.25l.25-.59.25-.56c2.42-4.51 4.75-9.14 6.55-13.94z" fill="#fecc05"/><path d="m37.9401 37.2478c2.16 5.51 4.2 11.06 6.22 16.62-4.34.04-8.68.04-13.01 0 2.04-5.62 4.28-11.18 6.79-16.62z" fill="#fff"/><path d="m191.76 51.5578c.24 2.23.53 4.44.75 6.67-6.88.48-13.75.15-20.64.36.7 2.75 1.43 5.33 3.32 7.51 2.2 1.54 4.38 2.81 7.16 2.73 3.36.02 6.67-2.8 9.61-4.26-.56 1.43-1.16 2.85-1.76 4.27-2.79 1.7-5.16 3.65-8.44 4.33-3.96.88-7.62.02-11.38-1.22-5.63-4.34-7.47-11.2-4.7-17.79 4.32-9.85 19.83-11.36 26.08-2.6z" fill="#39177a"/><path d="m207.107 45.7105c.44.63.88 1.25 1.32 1.88-.09 1.95-.2 3.89-.27 5.83.81-1.11 1.62-2.24 2.45-3.35 1.74-2.2 3.52-4.28 6.55-4.44 1.84-.14 3.25 1.23 4.66 2.21-.25 1.69-.49 3.37-.75 5.06-1.47.51-2.95.99-4.44 1.46l-.77-.7c-.81-.74-1.61-1.47-2.46-2.17l-.47-.39c-1.2.5-1.97 1.4-2.32 2.72-2.05 5.27-2.4 10.5-1.62 16.07l1.85.53c2.13.59 4.11.85 5.7 2.56-6.18-.01-12.29-.44-18.47.12-1.21-.16-2.39-.38-3.57-.67 2-.88 4.01-1.59 6.1-2.2.49-5.78.46-11.65.25-17.45-.19-.85-.4-1.71-.63-2.56-1.54.12-3.09.26-4.63.43-.62-.54-1.24-1.1-1.86-1.66 4.53-.91 9.01-1.73 13.38-3.28z" fill="#39177a"/><path d="m298.517 46.7405c4.22.96 7.37 3.71 9.84 7.15.75 5.67 1.25 10.88-3.21 15.22-6.71 6.11-14.98 5.24-23.14 3.13-2.45-1.86-4.87-4.05-5.99-7-2.04-5.53-.54-12.36 4.39-15.88 4.95-3.66 12.31-3.97 18.11-2.62z" fill="#39177a"/><path d="m324.117 45.7205c.47.65.94 1.3 1.39 1.96-1.02 1.93.4 3.07 2.11 1.76 3.81-1.87 8.24-3.51 12.53-3.39 2.34 0 3.83 1.33 5.51 2.74 1.15 6.95.12 13.95.96 20.88.6.43 1.24.82 1.89 1.17.69.19 1.38.37 2.07.55.57.59 1.14 1.18 1.71 1.76-5.12-.41-10.15-.45-15.27-.16-1.36.02-2.72 0-4.09-.05 1.74-1.14 3.58-2.1 5.44-3.04.39-5.93.63-12-.1-17.91-.48-.64-.97-1.27-1.48-1.89-1.48-.1-2.95-.12-4.43-.07-1.89-.05-4.14.28-5.51 1.71-1.11 1.11-1.69 1.73-1.64 3.41-.11 4.25-.19 8.57.1 12.81.01 1.09.61 1.96 1.79 2.59 1.15.78 2.29 1.56 3.33 2.49-4.74-.06-9.44-.45-14.19-.07-1.82.06-3.64 0-5.46-.11 2.07-1.14 4.37-1.88 6.37-3.14.76-5.49.44-11.2.22-16.73-.07-.85-.15-1.7-.22-2.55-1.41-.05-2.81-.12-4.21-.22-1.03-.19-2.05-.4-3.07-.63 4.56-1.81 9.55-2.41 14.25-3.87z" fill="#39177a"/><path d="m78.4901 47.6578c1.22-.13 2.01.36 2.4 1.49-1.55 1.21-2.98.53-2.4-1.49z" fill="#fecc05"/><path d="m179.137 47.9005c-.77 1.27-1.8 1.51-3.1.75.85-1 1.88-1.25 3.1-.75z" fill="#fff"/><path d="m179.137 47.9005c1.47.51 2.92 1.06 4.31 1.74-1.78.42-3.7.69-5.4 1.42-1.81 1.36-2.79 3.93-4.04 5.79l-2.09.04c.59-3.64 1.35-5.72 4.12-8.24 1.3.76 2.33.52 3.1-.75z" fill="#fecc05"/><path d="m208.427 47.5905c.73.83 1.45 1.65 2.18 2.48-.83 1.11-1.64 2.24-2.45 3.35.07-1.94.18-3.88.27-5.83z" fill="#fecc05"/><path d="m221.817 47.8405c1.75 2.11 3 6.58-.07 8.08-2.35.94-3.41-.1-5.12-1.56 1.49-.47 2.97-.95 4.44-1.46.26-1.69.5-3.37.75-5.06z" fill="#fecc05"/><path d="m290.337 48.2305c2.64-.78 4.82.15 7.02 1.53-3.48.62-6.74.37-9.05 3.51-3.67 5.07-2.48 11.44-1.38 17.13-3.67-4.31-4.04-10.04-2.78-15.36.92-3.18 2.74-6.07 6.19-6.81z" fill="#fecc05"/><path d="m325.507 47.6805c1.15.24 1.85.83 2.11 1.76-1.71 1.31-3.13.17-2.11-1.76z" fill="#fecc05"/><path d="m29.8275 49.2305-.25.59z" fill="#fff"/><path d="m118.61 48.7578c1.69 1.96 2.36 3.64 2.5 6.23.25 5.26-.03 10.53.3 15.79l-1.79-.4c-1.21-7.08-.4-14.42-1.01-21.62z" fill="#fecc05"/><path d="m145.47 49.5178c2.06-.23 3.56.88 5.2 1.93-3.72.61-7.28.51-9.61 3.97-.6 4.57-.1 9.26-.54 13.87-.68-.52-1.36-1.05-2.04-1.59.05-4.91.04-9.82.03-14.73 2.07-1.4 4.39-3.28 6.96-3.45z" fill="#fecc05"/><path d="m345.657 48.7905c1.34 1.56 2.43 3.2 2.58 5.33.45 5.54.12 11.16.27 16.72-.65-.35-1.29-.74-1.89-1.17-.84-6.93.19-13.93-.96-20.88z" fill="#fecc05"/><path d="m66.1601 50.0378c1.42.07 2.84.12 4.25.14.08.86.15 1.72.22 2.58-1.47-.3-2.94-.59-4.41-.88-.02-.61-.04-1.23-.06-1.84z" fill="#fecc05"/><path d="m85.3775 49.9805c-1.61 1.65-3.12 2.61-5.47 1.76 1.36-1.37 3.6-1.87 5.47-1.76z" fill="#fff"/><path d="m85.6201 49.7378c2.05-.16 3.48.53 5.19 1.53-3.45.72-6.76 1.62-9.99 3.05-.23 5.49-.17 10.98-.17 16.48-.67-.47-1.33-.94-2.01-1.41-.17-5.37-.6-10.9.02-16.24.47-.58.96-1.12 1.49-1.65 2.35.85 3.86-.11 5.47-1.76z" fill="#fecc05"/><path d="m105.357 50.0605c-1.74 1.76-3.1 3.21-5.7095 2.03 1.2295-1.49 3.8495-1.98 5.7095-2.03z" fill="#fff"/><path d="m105.6 49.8178c2.3-.19 3.57-.08 5.38 1.47-3.06.79-7.56 1.23-9.81 3.68-.57 5.26-.19 10.68.02 15.96-.76-.54-1.5199-1.06-2.2799-1.58-.11-4.81-.33-9.65-.1-14.45.02-1.2.44-2.08 1.08-3.05 2.6099 1.18 3.9699-.27 5.7099-2.03z" fill="#fecc05"/><path d="m183.69 49.3978c1.01 2.32 1.55 4.72 1.92 7.21-3.79.08-7.57.02-11.36 0 1.25-1.86 2.23-4.43 4.04-5.79 1.7-.73 3.62-1 5.4-1.42z" fill="#fff"/><path d="m195.587 50.6505c1.54-.17 3.09-.31 4.63-.43.23.85.44 1.71.63 2.56-2.06-.29-3.76-.5-5.26-2.13z" fill="#fecc05"/><path d="m297.357 49.7605c3.64 4.77 4 11.1 1.95 16.6-1.15 2.79-3.33 5.03-6.41 5.52-2.24.43-4.01-.57-5.97-1.48-1.1-5.69-2.29-12.06 1.38-17.13 2.31-3.14 5.57-2.89 9.05-3.51z" fill="#fff"/><path d="m312.937 50.2205c1.4.1 2.8.17 4.21.22.07.85.15 1.7.22 2.55-1.5-.29-2.99-.58-4.49-.86.02-.64.04-1.27.06-1.91z" fill="#fecc05"/><path d="m332.357 50.0305c-1.62 1.58-3.19 2.62-5.51 1.71 1.37-1.43 3.62-1.76 5.51-1.71z" fill="#fff"/><path d="m332.357 50.0305c1.48-.05 2.95-.03 4.43.07.51.62 1 1.25 1.48 1.89-3.96.04-7.19.93-10.77 2.54-.29 5.33-.15 10.68-.4 16.02-1.18-.63-1.78-1.5-1.79-2.59-.29-4.24-.21-8.56-.1-12.81-.05-1.68.53-2.3 1.64-3.41 2.32.91 3.89-.13 5.51-1.71z" fill="#fecc05"/><path d="m159.62 50.7378c6.91 7.09 3.53 22.46-6.66 24.67-5.15 1.55-8.88-2.14-13.9-1.04-9.89 1.34-19.65.06-29.56.71.26-.77.51-1.55.77-2.32 4.06-.18 8.09-.26 12.16.02 5.71.33 11.35-.31 17-1.05 2.64.48 5.15 1.71 8 1.84 4.85.14 9.43-2.73 11.6-7.05 2.56-5.07 2.21-10.48.59-15.78z" fill="#fecc05"/><path d="m212.927 51.1005.47.39c-.49 1.34-1.12 2.6-2.79 2.33.35-1.32 1.12-2.22 2.32-2.72z" fill="#fff"/><path d="m213.397 51.4905c.85.7 1.65 1.43 2.46 2.17-1.26.9-2.55 1.51-3.22 2.99-1.94 4.09-1.77 9.33-1.8 13.77l-1.85-.53c-.78-5.57-.43-10.8 1.62-16.07 1.67.27 2.3-.99 2.79-2.33z" fill="#fecc05"/><path d="m150.67 51.4478c2.9 4.49 3.04 10.05 1.29 14.99-1 2.48-2.81 4.55-5.57 4.99-2.36.32-4.06-.84-5.87-2.14.44-4.61-.06-9.3.54-13.87 2.33-3.46 5.89-3.36 9.61-3.97z" fill="#fff"/><g fill="#fecc05"><path d="m191.517 51.8005c2.48 2.63 2.82 5.62 2.94 9.08-6.78.11-13.54-.08-20.32.16.28 1.77.56 3.53.81 5.3-1.89-2.18-2.62-4.76-3.32-7.51 6.89-.21 13.76.12 20.64-.36-.22-2.23-.51-4.44-.75-6.67z"/><path d="m308.357 53.8905c4.2 4.89 3.61 13.02-.97 17.46-2.99 2.94-7.18 4.29-11.28 4.61-5.07.32-10.08-.36-14.1-3.72 8.16 2.11 16.43 2.98 23.14-3.13 4.46-4.34 3.96-9.55 3.21-15.22z"/><path d="m26.9101 56.1478c5.94-.44 12.13-.39 18.08-.02l.73 1.69c-5.44.27-10.84.2-16.29.21-1.47 4.01-2.7 8.06-3.56 12.25-.86-.21-1.71-.41-2.57-.62.91-4.57 2.1-9.09 3.61-13.51z"/><path d="m272.637 63.9305c-1.74 5.38-7.63 9.1-12.66 11-8.6 2.74-19.2 1.86-26.04-4.55 9.25 5.02 20.12 5.07 29.32-.1 3.49-1.67 6.11-4.35 9.38-6.35z"/><path d="m194.397 66.8405c-3.88 9.44-16.81 12.36-24.26 5.35 3.76 1.24 7.42 2.1 11.38 1.22 3.28-.68 5.65-2.63 8.44-4.33 1.44-.83 2.93-1.56 4.44-2.24z"/><path d="m12.2801 72.7978c6.19-.62 12.28-.1 18.48-.07.69.75 1.36 1.51 2.02 2.29-7.11-.25-14.09-.51-21.19.16.22-.79.45-1.58.69-2.38z"/><path d="m45.3201 72.8678c6.51-.53 12.59-.59 19.1-.07 6.21-.11 12.36-.26 18.57-.12.85.74 1.67 1.5 2.5 2.27-8.38-.27-16.72.42-25.07-.23-5.22-.25-10.3.24-15.5.47.13-.78.27-1.55.4-2.32z"/><path d="m89.3001 72.7878c4.77-.29 9.48-.15 14.2499.05.73.67 1.46 1.36 2.17 2.05-5.56.12-11.1199-.04-16.6799.18.09-.76.17-1.52.26-2.28z"/><path d="m198.067 73.1005c6.18-.56 12.29-.13 18.47-.12.68.71 1.35 1.44 2.01 2.17-7.1.02-14.18-.21-21.28.16.27-.74.53-1.48.8-2.21z"/><path d="m316.237 72.9705c4.75-.38 9.45.01 14.19.07.71.69 1.42 1.39 2.11 2.1-6.27-.01-12.54.01-18.81 0 .82-.74 1.66-1.47 2.51-2.17z"/><path d="m337.017 72.9905c5.12-.29 10.15-.25 15.27.16.54.24 1.08.47 1.62.71l-.69 1.36c-1.48.04-2.96.03-4.45.04-4.21-.13-8.38-.12-12.58.05.27-.77.55-1.55.83-2.32z"/></g></g></svg>