<?xml version="1.0" encoding="UTF-8"?>
<svg width="550px" height="139px" viewBox="0 0 550 139" xmlns="http://www.w3.org/2000/svg" xmlns:xlink="http://www.w3.org/1999/xlink" version="1.1">
 <g id="group-NW">
  <path id="Path" d="M430.02 26.31 C431.56 27.43 433.07 28.61 434.48 29.9 433.07 33.66 431.81 37.53 430.03 41.14 427.93 44.88 425.19 48.31 422.75 51.84 420.76 54.65 419.77 58.02 418.08 61.11 416.17 64.65 414.01 67.88 412.9 71.81 409.34 83.75 404.43 95.45 401.46 107.55 399.82 114.2 400.42 120.71 401.61 127.37 402.37 129.6 399.28 131.54 398.08 133.14 396.06 132.44 394.03 131.76 392.03 131.01 389.55 128.82 387.65 126.37 387.19 123.01 385.61 117.94 384.45 112.93 383.54 107.7 382.36 93.28 379.35 79.25 379.4 64.68 378.72 63.99 378.01 63.34 377.27 62.72 376.35 64.35 375.54 66.03 374.73 67.72 374.19 67.48 373.65 67.25 373.11 67.01 372.54 66.43 371.97 65.84 371.4 65.25 372.94 61.56 374.51 57.9 376.29 54.31 377.44 51.54 378.83 49.1 378.29 46 378.14 42.6 376.84 39.82 375.45 36.8 376 34.87 377.32 33.08 378.5 31.47 380.27 30.53 382.15 29.63 384.09 29.06 388.09 29.57 391.08 31.89 393.88 34.61 392.43 37.35 392.78 40.02 392.76 43 392.77 47.46 391.14 51.51 391.02 55.96 390.82 63.66 390.86 71.37 391.45 79.06 391.72 86.45 392.39 93.77 394.02 100.99 394.33 102.67 395.3 103.86 396.33 105.15 L397.23 106.3 C400.18 102.76 401.23 98.1 402.61 93.71 403.87 88.75 405.39 84 407.22 79.23 410.67 70.23 412.84 60.05 417.78 51.77 419.47 49.08 418.04 46.84 417.4 44.09 418.82 42.22 420.29 40.54 421.47 38.5 424.23 33.97 425.25 29.34 430.02 26.31 Z" fill="#ce0000" fill-opacity="1" stroke="none"/>
  <path id="Path-1" d="M519.64 27.41 C517.56 31.03 513.61 33.72 510.56 36.59 505.91 40.5 502.67 45.17 498.98 49.97 494.68 56.1 490.53 62.46 486.88 68.99 484.01 74.03 481.21 79.01 479.42 84.55 476.39 93.4 471.28 101.84 468.98 110.85 467.27 118.32 466.34 125.56 462.86 132.51 461.51 132.48 460.16 132.44 458.81 132.42 457.5 131.22 456.24 129.96 454.96 128.74 455.07 123.57 456.25 118.59 456.68 113.45 457.14 109.15 458.89 105.41 458.78 101.01 458.61 92.86 459.73 84.88 460.65 76.81 460.76 75.46 460.82 74.1 460.83 72.74 456.75 76.16 454.67 80.46 451.82 84.82 447.57 91.4 443.94 98.21 439.99 104.98 435.26 112.98 431.45 121.78 427.74 130.33 425.79 130.01 423.85 129.69 421.93 129.24 418.11 126.49 420.1 122.95 419.92 119 420.16 115.22 419.18 112.02 420.65 108.67 422.87 103.67 422.73 97.42 423.15 91.99 423.59 82.41 426.15 73.43 429.53 64.52 431.86 57.08 434.54 49.79 437.72 42.67 439.14 38.59 441.44 35.05 443.62 31.36 448.37 30.86 452.26 30.77 455.57 34.75 452.95 42.82 450.01 50.95 446.65 58.74 442.32 66.53 439.32 74.83 435.87 83.03 434.27 86.39 431.92 89.21 430.75 92.82 428.88 98.69 427.64 104.5 430.02 110.46 L430.95 109.13 C434.52 104.21 437.14 98.57 440.43 93.44 447.64 81.48 455.34 69.24 461.73 56.76 463.2 53.66 463.63 50.12 464.76 46.87 467.47 46.28 470.14 45.58 472.81 44.84 473.75 45.75 474.68 46.64 475.59 47.57 473.14 57.67 470 67.56 467.62 77.69 464.66 86.35 464.02 94.15 465.18 103.23 465.87 102.02 466.54 100.8 467.18 99.57 472.23 89.08 477.39 78.46 483.63 68.63 491.96 57.41 497.41 46.15 507.63 36.64 511.27 33.42 515 29.09 519.64 27.41 Z" fill="#ce0000" fill-opacity="1" stroke="none"/>
  <path id="Path-2" d="M434.48 29.9 C435.3 30.85 436.03 31.83 436.45 33.02 435.39 36.29 433.88 39.41 432.73 42.65 429.43 48.51 424.34 53.68 421.97 60.02 420.02 64.83 416.76 68.41 415.32 73.36 411.59 86.29 405.88 98.94 403.18 112.13 401.98 118.6 403.03 124.56 403.94 130.94 403.11 132.74 401.25 134.17 399.95 135.67 397.12 134.27 394.4 133.16 392.03 131.01 394.03 131.76 396.06 132.44 398.08 133.14 399.28 131.54 402.37 129.6 401.61 127.37 400.42 120.71 399.82 114.2 401.46 107.55 404.43 95.45 409.34 83.75 412.9 71.81 414.01 67.88 416.17 64.65 418.08 61.11 419.77 58.02 420.76 54.65 422.75 51.84 425.19 48.31 427.93 44.88 430.03 41.14 431.81 37.53 433.07 33.66 434.48 29.9 Z" fill="#39177a" fill-opacity="1" stroke="none"/>
  <path id="Path-3" d="M522.36 29.58 C518.82 34.16 513.72 37.53 509.7 41.7 501.64 50.51 495.65 60.31 489.41 70.41 486.68 75.69 483.28 80.99 481.66 86.7 478.74 95.31 473.8 103.56 471.34 112.34 469.69 119.85 468.42 128.35 464.79 135.17 462.65 134.5 460.59 133.85 458.81 132.42 460.16 132.44 461.51 132.48 462.86 132.51 466.34 125.56 467.27 118.32 468.98 110.85 471.28 101.84 476.39 93.4 479.42 84.55 481.21 79.01 484.01 74.03 486.88 68.99 491.4 63.61 494.66 57.49 498.84 51.86 503.59 44.58 510.1 38.3 516.68 32.68 518.46 31.11 520.02 30.18 522.36 29.58 Z" fill="#39177a" fill-opacity="1" stroke="none"/>
  <path id="Path-4" d="M393.88 34.61 C394.43 35.14 394.97 35.69 395.5 36.25 395.38 38.49 395.19 40.73 395.25 42.98 395.47 48.84 392.85 54.07 393.21 59.96 392.78 70.04 393.55 80 394.16 90.04 394.65 95.11 395.77 100.08 396.33 105.15 395.3 103.86 394.33 102.67 394.02 100.99 392.39 93.77 391.72 86.45 391.45 79.06 390.86 71.37 390.82 63.66 391.02 55.96 391.14 51.51 392.77 47.46 392.76 43 392.78 40.02 392.43 37.35 393.88 34.61 Z" fill="#39177a" fill-opacity="1" stroke="none"/>
  <path id="Path-5" d="M455.57 34.75 C456.32 36.01 457.08 37.48 457.18 38.97 456.63 41.54 455.41 44.01 454.5 46.48 452.03 52.75 450.03 59.77 446.48 65.48 444.19 69.18 443.45 73.46 441.31 77.25 439.29 81.11 438.75 85.79 436.03 89.05 431.84 94.93 430.96 102.1 430.95 109.13 L430.02 110.46 C427.64 104.5 428.88 98.69 430.75 92.82 431.92 89.21 434.27 86.39 435.87 83.03 439.32 74.83 442.32 66.53 446.65 58.74 450.01 50.95 452.95 42.82 455.57 34.75 Z" fill="#39177a" fill-opacity="1" stroke="none"/>
  <path id="Path-6" d="M475.59 47.57 C478.97 50.79 476.54 53.97 475.79 57.75 473.43 65.31 471.64 72.98 469.63 80.64 467.54 86.77 466.36 93.08 467.18 99.57 466.54 100.8 465.87 102.02 465.18 103.23 464.02 94.15 464.66 86.35 467.62 77.69 470 67.56 473.14 57.67 475.59 47.57 Z" fill="#39177a" fill-opacity="1" stroke="none"/>
  <path id="Path-7" d="M377.27 62.72 C378.01 63.34 378.72 63.99 379.4 64.68 376.91 69.24 374.76 73.96 372.76 78.75 368.86 88.15 364.67 97.42 360.83 106.84 357.21 114.92 355.19 123.63 351.79 131.82 351.02 133.45 350.12 135.64 348.43 136.5 345.81 137.66 343.11 136.86 340.75 135.49 342.76 134.99 344.97 134.68 346.86 133.77 348.46 132.41 349.37 130.09 350.18 128.19 352.38 122.27 354.28 116.24 356.34 110.28 359.75 101.51 363.59 92.91 367.27 84.25 369.46 79.13 371.47 74.05 374.04 69.08 L374.73 67.72 C375.54 66.03 376.35 64.35 377.27 62.72 Z" fill="#39177a" fill-opacity="1" stroke="none"/>
  <path id="Path-8" d="M371.236 65.385 C373.07 61.64 373.642 66.895 375.122 66.855 372.552 71.825 369.46 79.13 367.27 84.25 363.59 92.91 359.75 101.51 356.34 110.28 354.28 116.24 352.38 122.27 350.18 128.19 349.37 130.09 348.46 132.41 346.86 133.77 344.97 134.68 342.76 134.99 340.75 135.49 339.26 133.81 337.44 132.27 337.16 129.91 336.63 126.2 336.83 122.48 335.86 118.81 335.15 114.22 334.9 108.81 338.28 105.17 340.42 104.28 342.79 103.85 345.03 103.3 345.76 104.02 346.48 104.73 347.19 105.46 345.56 110.67 344.99 115.82 345.26 121.27 346.25 120 347.2 118.7 348.07 117.34 351.25 113.07 352.57 108.42 354.63 103.56 357.37 97.01 359.74 90.35 363.01 84.03 365.07 78.98 368.886 70.315 371.236 65.385 Z" fill="#ce0000" fill-opacity="1" stroke="none"/>
  <path id="Path-9" d="M460.83 72.74 C460.82 74.1 460.76 75.46 460.65 76.81 455.07 85.31 449.63 93.82 444.75 102.75 439 112.33 434.11 122.37 429.99 132.75 426.73 132.38 424.35 131.5 421.93 129.24 423.85 129.69 425.79 130.01 427.74 130.33 431.45 121.78 435.26 112.98 439.99 104.98 443.94 98.21 447.57 91.4 451.82 84.82 454.67 80.46 456.75 76.16 460.83 72.74 Z" fill="#39177a" fill-opacity="1" stroke="none"/>
  <path id="Path-10" d="M347.19 105.46 C347.79 106.06 348.37 106.67 348.94 107.29 348.44 110.64 347.96 113.93 348.07 117.34 347.2 118.7 346.25 120 345.26 121.27 344.99 115.82 345.56 110.67 347.19 105.46 Z" fill="#39177a" fill-opacity="1" stroke="none"/>
 </g>
 <g id="group-AmberCon">
  <path id="Path-11" d="M154.701 33.363 C155.421 39.063 155.161 44.673 155.181 50.393 155.161 58.003 155.221 65.613 155.131 73.223 159.251 71.133 162.761 68.823 167.641 69.353 171.141 69.633 173.711 71.663 175.901 74.233 177.521 79.533 177.871 84.943 175.311 90.013 173.141 94.333 168.561 97.203 163.711 97.063 160.861 96.933 158.351 95.703 155.711 95.223 150.061 95.963 144.421 96.603 138.711 96.273 134.641 95.993 130.611 96.073 126.551 96.253 125.381 96.203 124.211 96.103 123.051 95.963 124.501 94.933 126.001 93.973 127.501 93.003 127.701 86.973 128.031 80.783 127.261 74.783 125.451 73.233 124.181 73.123 121.881 73.313 120.021 73.363 117.401 73.853 116.171 75.343 115.531 76.313 115.111 77.193 115.091 78.393 114.861 83.193 115.081 88.033 115.191 92.843 115.951 93.363 116.711 93.883 117.471 94.423 118.271 95.013 119.061 95.653 119.831 96.333 115.061 96.133 110.351 95.993 105.581 96.283 104.561 96.283 103.541 96.273 102.521 96.253 104.051 95.083 105.641 94.023 107.231 92.953 107.581 86.883 107.611 80.813 107.091 74.763 105.381 73.763 103.951 73.073 101.901 73.233 100.031 73.123 97.791 73.623 96.431 74.993 95.901 75.523 95.411 76.063 94.941 76.643 94.321 81.983 94.751 87.513 94.921 92.883 95.601 93.353 96.261 93.823 96.931 94.293 97.731 94.893 98.511 95.513 99.271 96.173 93.061 96.033 86.911 96.183 80.701 96.293 74.191 95.773 68.111 95.833 61.601 96.363 60.521 96.253 59.441 96.113 58.371 95.953 60.591 94.133 63.141 93.883 65.861 93.303 64.851 89.223 63.591 85.203 62.001 81.313 L61.271 79.623 C55.321 79.253 49.131 79.203 43.191 79.643 41.681 84.063 40.491 88.583 39.581 93.153 40.441 93.363 41.291 93.563 42.151 93.773 44.081 94.233 45.671 94.683 47.041 96.223 40.841 96.193 34.751 95.673 28.561 96.293 27.421 96.273 26.281 96.223 25.141 96.143 28.031 92.873 32.571 95.013 34.291 90.983 39.631 81.463 43.981 71.153 48.561 61.243 51.651 54.843 53.871 48.153 56.301 41.493 56.851 42.253 57.381 43.023 57.911 43.793 58.611 49.623 60.721 54.863 62.801 60.293 66.271 69.133 69.701 77.993 73.301 86.773 74.421 89.383 75.291 91.833 77.391 93.853 80.461 94.323 83.481 94.333 86.571 94.063 87.321 88.183 87.201 82.163 86.911 76.253 86.841 75.393 86.771 74.533 86.691 73.673 85.281 73.653 83.861 73.603 82.441 73.533 81.521 73.193 80.601 72.843 79.681 72.463 84.461 71.213 89.311 70.383 93.991 68.773 94.271 69.563 94.531 70.353 94.771 71.153 94.191 73.173 95.621 73.853 97.171 72.643 100.661 70.963 104.751 69.253 108.681 69.313 111.601 69.243 113.581 71.683 115.651 73.383 119.881 71.613 124.981 68.943 129.641 69.333 131.941 69.423 133.271 70.853 134.891 72.253 135.501 79.453 134.691 86.793 135.901 93.873 L137.691 94.273 C140.631 94.963 144.151 94.993 146.751 93.313 147.801 87.493 147.171 81.293 147.331 75.393 147.151 63.923 147.771 52.373 146.901 40.933 146.931 39.903 146.491 39.253 145.561 38.963 143.851 38.683 142.131 38.483 140.431 38.193 145.001 36.163 149.911 34.833 154.701 33.363 Z M157.341 78.913 C156.741 83.483 157.241 88.173 156.801 92.783 158.611 94.083 160.311 95.243 162.671 94.923 165.431 94.483 167.241 92.413 168.241 89.933 169.991 84.993 169.851 79.433 166.951 74.943 163.231 75.553 159.671 75.453 157.341 78.913 Z M47.431 77.363 C51.761 77.403 56.101 77.403 60.441 77.363 58.421 71.803 56.381 66.253 54.221 60.743 51.711 66.183 49.471 71.743 47.431 77.363 Z M46.359 72.166 C48.779 67.656 51.109 63.026 52.909 58.226 L52.549 57.246 C49.999 61.936 48.069 67.116 46.359 72.166 Z" fill="#39177a" fill-opacity="1" stroke="none"/>
  <path id="Path-12" d="M145.318 39.206 C146.248 39.496 146.688 40.146 146.658 41.176 L144.738 41.626 C142.338 41.096 143.468 39.336 145.318 39.206 Z" fill="#fecc05" fill-opacity="1" stroke="none"/>
  <path id="Path-13" d="M286.698 39.846 C286.748 41.856 286.668 43.846 286.468 45.846 285.628 51.686 285.498 57.556 285.608 63.456 L284.428 64.696 C283.838 61.896 283.708 58.936 282.828 56.216 281.578 53.156 279.218 50.476 276.648 48.436 270.778 43.296 261.158 44.696 256.088 50.266 251.568 55.116 249.888 62.156 249.618 68.616 249.368 75.366 250.678 82.626 255.278 87.846 259.908 93.886 267.788 95.546 274.808 92.956 279.748 91.326 282.458 87.646 286.718 85.046 285.548 89.136 282.528 91.096 279.538 93.776 270.338 98.946 259.468 98.896 250.218 93.876 246.258 90.616 243.038 86.636 241.398 81.736 239.168 75.036 239.328 67.466 241.638 60.806 245.088 51.216 254.338 44.436 264.428 43.536 271.348 42.746 277.568 44.566 284.038 46.696 284.748 44.216 284.968 41.896 286.698 39.846 Z" fill="#39177a" fill-opacity="1" stroke="none"/>
  <path id="Path-14" d="M289.058 42.156 C288.988 45.556 288.548 48.906 288.238 52.276 287.778 57.176 288.008 62.066 287.418 66.966 286.788 65.806 286.168 64.646 285.608 63.456 285.498 57.556 285.628 51.686 286.468 45.846 287.288 44.586 288.158 43.366 289.058 42.156 Z" fill="#fecc05" fill-opacity="1" stroke="none"/>
  <path id="Path-15" d="M57.911 43.793 C60.661 47.073 60.981 51.443 62.511 55.583 67.021 68.503 72.581 81.053 77.391 93.853 75.291 91.833 74.421 89.383 73.301 86.773 69.701 77.993 66.271 69.133 62.801 60.293 60.721 54.863 58.611 49.623 57.911 43.793 Z" fill="#fecc05" fill-opacity="1" stroke="none"/>
  <path id="Path-16" d="M276.648 48.436 C271.888 47.386 267.408 46.716 262.878 49.056 256.018 52.516 252.918 60.336 252.138 67.586 251.198 74.606 252.478 81.396 255.278 87.846 250.678 82.626 249.368 75.366 249.618 68.616 249.888 62.156 251.568 55.116 256.088 50.266 261.158 44.696 270.778 43.296 276.648 48.436 Z" fill="#fecc05" fill-opacity="1" stroke="none"/>
  <path id="Path-17" d="M53.151 57.983 C53.501 58.903 53.861 59.823 54.221 60.743 51.711 66.183 49.471 71.743 47.431 77.363 46.391 77.353 45.351 77.343 44.321 77.323 44.901 75.903 45.491 74.483 46.101 73.073 L46.351 72.483 46.601 71.923 C49.021 67.413 51.351 62.783 53.151 57.983 Z" fill="#fecc05" fill-opacity="1" stroke="none"/>
  <path id="Path-18" d="M208.041 75.053 C208.281 77.283 208.571 79.493 208.791 81.723 201.911 82.203 195.041 81.873 188.151 82.083 188.851 84.833 189.581 87.413 191.471 89.593 193.671 91.133 195.851 92.403 198.631 92.323 201.991 92.343 205.301 89.523 208.241 88.063 207.681 89.493 207.081 90.913 206.481 92.333 203.691 94.033 201.321 95.983 198.041 96.663 194.081 97.543 190.421 96.683 186.661 95.443 181.031 91.103 179.191 84.243 181.961 77.653 186.281 67.803 201.791 66.293 208.041 75.053 Z M194.571 74.313 C192.761 75.673 191.781 78.243 190.531 80.103 194.321 80.123 198.101 80.183 201.891 80.103 201.521 77.613 200.981 75.213 199.971 72.893 198.191 73.313 196.271 73.583 194.571 74.313 Z M192.318 72.146 C193.618 72.906 194.648 72.666 195.418 71.396 194.198 70.896 193.168 71.146 192.318 72.146 Z" fill="#39177a" fill-opacity="1" stroke="none"/>
  <path id="Path-19" d="M223.388 69.206 C223.828 69.836 224.268 70.456 224.708 71.086 224.618 73.036 224.508 74.976 224.438 76.916 225.248 75.806 226.058 74.676 226.888 73.566 228.628 71.366 230.408 69.286 233.438 69.126 235.278 68.986 236.688 70.356 238.098 71.336 237.848 73.026 237.608 74.706 237.348 76.396 235.878 76.906 234.398 77.386 232.908 77.856 L232.138 77.156 C231.328 76.416 230.528 75.686 229.678 74.986 L229.208 74.596 C228.008 75.096 227.238 75.996 226.888 77.316 224.838 82.586 224.488 87.816 225.268 93.386 L227.118 93.916 C229.248 94.506 231.228 94.766 232.818 96.476 226.638 96.466 220.528 96.036 214.348 96.596 213.138 96.436 211.958 96.216 210.778 95.926 212.778 95.046 214.788 94.336 216.878 93.726 217.368 87.946 217.338 82.076 217.128 76.276 216.938 75.426 216.728 74.566 216.498 73.716 214.958 73.836 213.408 73.976 211.868 74.146 211.248 73.606 210.628 73.046 210.008 72.486 214.538 71.576 219.018 70.756 223.388 69.206 Z" fill="#39177a" fill-opacity="1" stroke="none"/>
  <path id="Path-20" d="M314.798 70.236 C319.018 71.196 322.168 73.946 324.638 77.386 325.388 83.056 325.888 88.266 321.428 92.606 314.718 98.716 306.448 97.846 298.288 95.736 295.838 93.876 293.418 91.686 292.298 88.736 290.258 83.206 291.758 76.376 296.688 72.856 301.638 69.196 308.998 68.886 314.798 70.236 Z M304.588 76.766 C300.918 81.836 302.108 88.206 303.208 93.896 305.168 94.806 306.938 95.806 309.178 95.376 312.258 94.886 314.438 92.646 315.588 89.856 317.638 84.356 317.278 78.026 313.638 73.256 310.158 73.876 306.898 73.626 304.588 76.766 Z" fill="#39177a" fill-opacity="1" stroke="none"/>
  <path id="Path-21" d="M340.398 69.216 C340.868 69.866 341.338 70.516 341.788 71.176 340.768 73.106 342.188 74.246 343.898 72.936 347.708 71.066 352.138 69.426 356.428 69.546 358.768 69.546 360.258 70.876 361.938 72.286 363.088 79.236 362.058 86.236 362.898 93.166 363.498 93.596 364.138 93.986 364.788 94.336 365.478 94.526 366.168 94.706 366.858 94.886 367.428 95.476 367.998 96.066 368.568 96.646 363.448 96.236 358.418 96.196 353.298 96.486 351.938 96.506 350.578 96.486 349.208 96.436 350.948 95.296 352.788 94.336 354.648 93.396 355.038 87.466 355.278 81.396 354.548 75.486 354.068 74.846 353.578 74.216 353.068 73.596 351.588 73.496 350.118 73.476 348.638 73.526 346.748 73.476 344.498 73.806 343.128 75.236 342.018 76.346 341.438 76.966 341.488 78.646 341.378 82.896 341.298 87.216 341.588 91.456 341.598 92.546 342.198 93.416 343.378 94.046 344.528 94.826 345.668 95.606 346.708 96.536 341.968 96.476 337.268 96.086 332.518 96.466 330.698 96.526 328.878 96.466 327.058 96.356 329.128 95.216 331.428 94.476 333.428 93.216 334.188 87.726 333.868 82.016 333.648 76.486 333.578 75.636 333.498 74.786 333.428 73.936 332.018 73.886 330.618 73.816 329.218 73.716 328.188 73.526 327.168 73.316 326.148 73.086 330.708 71.276 335.698 70.676 340.398 69.216 Z" fill="#39177a" fill-opacity="1" stroke="none"/>
  <path id="Path-22" d="M94.771 71.153 C95.991 71.023 96.781 71.513 97.171 72.643 95.621 73.853 94.191 73.173 94.771 71.153 Z" fill="#fecc05" fill-opacity="1" stroke="none"/>
  <path id="Path-23" d="M195.418 71.396 C196.888 71.906 198.338 72.456 199.728 73.136 197.948 73.556 196.028 73.826 194.328 74.556 192.518 75.916 191.538 78.486 190.288 80.346 L188.198 80.386 C188.788 76.746 189.548 74.666 192.318 72.146 193.618 72.906 194.648 72.666 195.418 71.396 Z" fill="#fecc05" fill-opacity="1" stroke="none"/>
  <path id="Path-24" d="M224.708 71.086 C225.438 71.916 226.158 72.736 226.888 73.566 226.058 74.676 225.248 75.806 224.438 76.916 224.508 74.976 224.618 73.036 224.708 71.086 Z" fill="#fecc05" fill-opacity="1" stroke="none"/>
  <path id="Path-25" d="M238.098 71.336 C239.848 73.446 241.098 77.916 238.028 79.416 235.678 80.356 234.618 79.316 232.908 77.856 234.398 77.386 235.878 76.906 237.348 76.396 237.608 74.706 237.848 73.026 238.098 71.336 Z" fill="#fecc05" fill-opacity="1" stroke="none"/>
  <path id="Path-26" d="M306.618 71.726 C309.258 70.946 311.438 71.876 313.638 73.256 310.158 73.876 306.898 73.626 304.588 76.766 300.918 81.836 302.108 88.206 303.208 93.896 299.538 89.586 299.168 83.856 300.428 78.536 301.348 75.356 303.168 72.466 306.618 71.726 Z" fill="#fecc05" fill-opacity="1" stroke="none"/>
  <path id="Path-27" d="M341.788 71.176 C342.938 71.416 343.638 72.006 343.898 72.936 342.188 74.246 340.768 73.106 341.788 71.176 Z" fill="#fecc05" fill-opacity="1" stroke="none"/>
  <path id="Path-28" d="M46.109 72.726 L45.859 73.316 Z" fill="#ffffff" fill-opacity="1" stroke="none"/>
  <path id="Path-29" d="M134.891 72.253 C136.581 74.213 137.251 75.893 137.391 78.483 137.641 83.743 137.361 89.013 137.691 94.273 L135.901 93.873 C134.691 86.793 135.501 79.453 134.891 72.253 Z" fill="#fecc05" fill-opacity="1" stroke="none"/>
  <path id="Path-30" d="M161.751 73.013 C163.811 72.783 165.311 73.893 166.951 74.943 163.231 75.553 159.671 75.453 157.341 78.913 156.741 83.483 157.241 88.173 156.801 92.783 156.121 92.263 155.441 91.733 154.761 91.193 154.811 86.283 154.801 81.373 154.791 76.463 156.861 75.063 159.181 73.183 161.751 73.013 Z" fill="#fecc05" fill-opacity="1" stroke="none"/>
  <path id="Path-31" d="M361.938 72.286 C363.278 73.846 364.368 75.486 364.518 77.616 364.968 83.156 364.638 88.776 364.788 94.336 364.138 93.986 363.498 93.596 362.898 93.166 362.058 86.236 363.088 79.236 361.938 72.286 Z" fill="#fecc05" fill-opacity="1" stroke="none"/>
  <path id="Path-32" d="M82.441 73.533 C83.861 73.603 85.281 73.653 86.691 73.673 86.771 74.533 86.841 75.393 86.911 76.253 85.441 75.953 83.971 75.663 82.501 75.373 82.481 74.763 82.461 74.143 82.441 73.533 Z" fill="#fecc05" fill-opacity="1" stroke="none"/>
  <path id="Path-33" d="M101.901 73.233 C103.951 73.073 105.381 73.763 107.091 74.763 103.641 75.483 100.331 76.383 97.101 77.813 96.871 83.303 96.931 88.793 96.931 94.293 96.261 93.823 95.601 93.353 94.921 92.883 94.751 87.513 94.321 81.983 94.941 76.643 95.339 76.152 95.752 75.689 96.191 75.237 98.536 76.084 100.045 75.129 101.652 73.484 101.734 73.402 101.818 73.318 101.901 73.233 Z M96.431 74.993 C96.435 74.995 96.44 74.996 96.444 74.998 96.38 75.054 96.317 75.111 96.255 75.17 96.313 75.111 96.372 75.052 96.431 74.993 Z" fill="#fecc05" fill-opacity="1" stroke="none"/>
  <path id="Path-34" d="M121.881 73.313 C124.181 73.123 125.451 73.233 127.261 74.783 124.201 75.573 119.701 76.013 117.451 78.463 116.881 83.723 117.261 89.143 117.471 94.423 116.711 93.883 115.951 93.363 115.191 92.843 115.081 88.033 114.861 83.193 115.091 78.393 115.109 77.306 115.455 76.482 115.996 75.616 118.391 76.667 119.728 75.481 121.3 73.898 121.49 73.709 121.683 73.513 121.881 73.313 Z" fill="#fecc05" fill-opacity="1" stroke="none"/>
  <path id="Path-35" d="M211.868 74.146 C213.408 73.976 214.958 73.836 216.498 73.716 216.728 74.566 216.938 75.426 217.128 76.276 215.068 75.986 213.368 75.776 211.868 74.146 Z" fill="#fecc05" fill-opacity="1" stroke="none"/>
  <path id="Path-36" d="M329.218 73.716 C330.618 73.816 332.018 73.886 333.428 73.936 333.498 74.786 333.578 75.636 333.648 76.486 332.148 76.196 330.658 75.906 329.158 75.626 329.178 74.986 329.198 74.356 329.218 73.716 Z" fill="#fecc05" fill-opacity="1" stroke="none"/>
  <path id="Path-37" d="M353.068 73.596 C353.578 74.216 354.068 74.846 354.548 75.486 350.588 75.526 347.358 76.416 343.778 78.026 343.488 83.356 343.628 88.706 343.378 94.046 342.198 93.416 341.598 92.546 341.588 91.456 341.298 87.216 341.378 82.896 341.488 78.646 341.438 76.966 342.018 76.346 343.128 75.236 345.448 76.146 347.018 75.106 348.638 73.526 350.118 73.476 351.588 73.496 353.068 73.596 Z" fill="#fecc05" fill-opacity="1" stroke="none"/>
  <path id="Path-38" d="M175.901 74.233 C182.811 81.323 179.431 96.693 169.241 98.903 164.091 100.453 160.361 96.763 155.341 97.863 145.451 99.203 135.691 97.923 125.781 98.573 126.041 97.803 126.291 97.023 126.551 96.253 130.611 96.073 134.641 95.993 138.711 96.273 144.421 96.603 150.061 95.963 155.711 95.223 158.351 95.703 160.861 96.933 163.711 97.063 168.561 97.203 173.141 94.333 175.311 90.013 177.871 84.943 177.521 79.533 175.901 74.233 Z" fill="#fecc05" fill-opacity="1" stroke="none"/>
  <path id="Path-39" d="M232.138 77.156 C230.878 78.056 229.588 78.666 228.918 80.146 226.978 84.236 227.148 89.476 227.118 93.916 L225.268 93.386 C224.488 87.816 224.838 82.586 226.888 77.316 228.558 77.586 229.188 76.326 229.678 74.986 230.528 75.686 231.328 76.416 232.138 77.156 Z" fill="#fecc05" fill-opacity="1" stroke="none"/>
  <path id="Path-40" d="M207.798 75.296 C210.278 77.926 210.618 80.916 210.738 84.376 203.958 84.486 197.198 84.296 190.418 84.536 190.698 86.306 190.978 88.066 191.228 89.836 189.338 87.656 188.608 85.076 187.908 82.326 194.798 82.116 201.668 82.446 208.548 81.966 208.328 79.736 208.038 77.526 207.798 75.296 Z" fill="#fecc05" fill-opacity="1" stroke="none"/>
  <path id="Path-41" d="M324.638 77.386 C328.838 82.276 328.248 90.406 323.668 94.846 320.678 97.786 316.488 99.136 312.388 99.456 307.318 99.776 302.308 99.096 298.288 95.736 306.448 97.846 314.718 98.716 321.428 92.606 325.888 88.266 325.388 83.056 324.638 77.386 Z" fill="#fecc05" fill-opacity="1" stroke="none"/>
  <path id="Path-42" d="M43.191 79.643 C49.131 79.203 55.321 79.253 61.271 79.623 L62.001 81.313 C56.561 81.583 51.161 81.513 45.711 81.523 44.241 85.533 43.011 89.583 42.151 93.773 41.291 93.563 40.441 93.363 39.581 93.153 40.491 88.583 41.681 84.063 43.191 79.643 Z" fill="#fecc05" fill-opacity="1" stroke="none"/>
  <path id="Path-43" d="M288.918 87.426 C287.178 92.806 281.288 96.526 276.258 98.426 267.658 101.166 257.058 100.286 250.218 93.876 259.468 98.896 270.338 98.946 279.538 93.776 283.028 92.106 285.648 89.426 288.918 87.426 Z" fill="#fecc05" fill-opacity="1" stroke="none"/>
  <path id="Path-44" d="M210.678 90.336 C206.798 99.776 193.868 102.696 186.418 95.686 190.178 96.926 193.838 97.786 197.798 96.906 201.078 96.226 203.448 94.276 206.238 92.576 207.678 91.746 209.168 91.016 210.678 90.336 Z" fill="#fecc05" fill-opacity="1" stroke="none"/>
  <path id="Path-45" d="M28.561 96.293 C34.751 95.673 40.841 96.193 47.041 96.223 47.731 96.973 48.401 97.733 49.061 98.513 41.951 98.263 34.971 98.003 27.871 98.673 28.091 97.883 28.321 97.093 28.561 96.293 Z" fill="#fecc05" fill-opacity="1" stroke="none"/>
  <path id="Path-46" d="M61.601 96.363 C68.111 95.833 74.191 95.773 80.701 96.293 86.911 96.183 93.061 96.033 99.271 96.173 100.121 96.913 100.941 97.673 101.771 98.443 93.391 98.173 85.051 98.863 76.701 98.213 71.481 97.963 66.401 98.453 61.201 98.683 61.331 97.903 61.471 97.133 61.601 96.363 Z" fill="#fecc05" fill-opacity="1" stroke="none"/>
  <path id="Path-47" d="M105.581 96.283 C110.351 95.993 115.061 96.133 119.831 96.333 120.561 97.003 121.291 97.693 122.001 98.383 116.441 98.503 110.881 98.343 105.321 98.563 105.411 97.803 105.491 97.043 105.581 96.283 Z" fill="#fecc05" fill-opacity="1" stroke="none"/>
  <path id="Path-48" d="M214.348 96.596 C220.528 96.036 226.638 96.466 232.818 96.476 233.498 97.186 234.168 97.916 234.828 98.646 227.728 98.666 220.648 98.436 213.548 98.806 213.818 98.066 214.078 97.326 214.348 96.596 Z" fill="#fecc05" fill-opacity="1" stroke="none"/>
  <path id="Path-49" d="M332.518 96.466 C337.268 96.086 341.968 96.476 346.708 96.536 347.418 97.226 348.128 97.926 348.818 98.636 342.548 98.626 336.278 98.646 330.008 98.636 330.828 97.896 331.668 97.166 332.518 96.466 Z" fill="#fecc05" fill-opacity="1" stroke="none"/>
  <path id="Path-50" d="M353.298 96.486 C358.418 96.196 363.448 96.236 368.568 96.646 369.108 96.886 369.648 97.116 370.188 97.356 L369.498 98.716 C368.018 98.756 366.538 98.746 365.048 98.756 360.838 98.626 356.668 98.636 352.468 98.806 352.738 98.036 353.018 97.256 353.298 96.486 Z" fill="#fecc05" fill-opacity="1" stroke="none"/>
 </g>
</svg>
